<svg id="bin" xmlns="http://www.w3.org/2000/svg" width="14.667" height="16" viewBox="0 0 14.667 16">
  <path id="Path_4692" data-name="Path 4692" d="M6,7.333A1.333,1.333,0,0,0,7.333,8.667v6.667A2.667,2.667,0,0,0,10,18h6.667a2.667,2.667,0,0,0,2.667-2.667V8.667a1.333,1.333,0,0,0,1.333-1.333V6a1.333,1.333,0,0,0-1.333-1.333H16.667V3.333A1.333,1.333,0,0,0,15.333,2h-4A1.333,1.333,0,0,0,10,3.333V4.667H7.333A1.333,1.333,0,0,0,6,6Zm12,8a1.333,1.333,0,0,1-1.333,1.333H10a1.333,1.333,0,0,1-1.333-1.333V8.667H18Zm-6.667-12h4V4.667h-4ZM7.333,6h12V7.333h-12Z" transform="translate(-6 -2)" fill="red"/>
  <path id="Path_4693" data-name="Path 4693" d="M30.667,55.333a.667.667,0,0,0,.667-.667v-4a.667.667,0,1,0-1.333,0v4A.667.667,0,0,0,30.667,55.333Z" transform="translate(-26 -42)" fill="red"/>
  <path id="Path_4694" data-name="Path 4694" d="M46.667,55.333a.667.667,0,0,0,.667-.667v-4a.667.667,0,1,0-1.333,0v4A.667.667,0,0,0,46.667,55.333Z" transform="translate(-39.334 -42)" fill="red"/>
  <path id="Path_4695" data-name="Path 4695" d="M62.667,55.333a.667.667,0,0,0,.667-.667v-4a.667.667,0,0,0-1.333,0v4A.667.667,0,0,0,62.667,55.333Z" transform="translate(-52.666 -42)" fill="red"/>
</svg>
