<svg xmlns="http://www.w3.org/2000/svg" width="21.835" height="18.501" viewBox="0 0 21.835 18.501">
  <g id="Group_6125" data-name="Group 6125" transform="translate(-433 -425.828)">
    <g id="Group_6028" data-name="Group 6028" transform="translate(433 425.828)">
      <path id="Path_5533" data-name="Path 5533" d="M433.939,492.733h-.357a.593.593,0,0,0-.582.582v2.416a.593.593,0,0,0,.582.582h.336a.593.593,0,0,0,.582-.582v-2.417a.572.572,0,0,0-.559-.581Z" transform="translate(-433 -487.744)" fill="#f3f3f3"/>
      <path id="Path_5534" data-name="Path 5534" d="M706.613,497.83h-.336a.593.593,0,0,0-.582.582v2.416a.593.593,0,0,0,.582.582h.336a.593.593,0,0,0,.582-.582v-2.417a.577.577,0,0,0-.582-.581Z" transform="translate(-685.36 -492.461)" fill="#f3f3f3"/>
      <path id="Path_5535" data-name="Path 5535" d="M475.6,426.633c-2.036-.76-7.182-.8-7.182-.8s-5.168.044-7.2.8-1.722,2.237-1.722,2.237v12.372a1.723,1.723,0,0,0,1.722,1.722h.2v.783a.593.593,0,0,0,.582.582h2.26a.593.593,0,0,0,.582-.582v-.783H472v.783a.593.593,0,0,0,.582.582h2.26a.593.593,0,0,0,.582-.582v-.783h.2a1.723,1.723,0,0,0,1.722-1.722l0-12.393c-.022,0,.291-1.454-1.744-2.215Zm-8.971.671a.248.248,0,0,1,.246-.246h3.087a.248.248,0,0,1,.246.246v.671a.248.248,0,0,1-.246.246h-3.087a.248.248,0,0,1-.246-.246Zm-2.372,12.148a.506.506,0,0,1-.515.515h-1.991a.506.506,0,0,1-.515-.515v-1.074a.481.481,0,0,1,.2-.4.535.535,0,0,1,.447-.089l1.991.537a.524.524,0,0,1,.38.492Zm-2.685-3.02a.306.306,0,0,1-.313-.313v-6.287a.306.306,0,0,1,.313-.313H475.2a.306.306,0,0,1,.313.313v6.287a.306.306,0,0,1-.313.313Zm14,3.02a.506.506,0,0,1-.515.515h-1.991a.506.506,0,0,1-.515-.515v-.537a.524.524,0,0,1,.38-.492l1.991-.536a.538.538,0,0,1,.447.089.478.478,0,0,1,.2.4Z" transform="translate(-457.5 -425.828)" fill="#f3f3f3"/>
    </g>
  </g>
</svg>
