<svg xmlns="http://www.w3.org/2000/svg" width="21.725" height="15.8" viewBox="0 0 21.725 15.8">
  <g id="Group_5980" data-name="Group 5980" transform="translate(-468 -467.828)">
    <path id="Path_5509" data-name="Path 5509" d="M472.608,480.994h7.9A3.3,3.3,0,0,0,483.8,477.7v-9.875H469.317V477.7A3.3,3.3,0,0,0,472.608,480.994Zm-1.975-11.85h11.85V477.7a1.977,1.977,0,0,1-1.975,1.975h-7.9a1.977,1.977,0,0,1-1.975-1.975Zm19.091,4.608a4.612,4.612,0,0,1-4.608,4.608v-1.317a3.292,3.292,0,1,0,0-6.583v-1.317a4.612,4.612,0,0,1,4.608,4.608ZM468,482.311h17.116v1.317H468Z" fill="#fff"/>
  </g>
</svg>
