<svg xmlns="http://www.w3.org/2000/svg" width="27.785" height="27.94" viewBox="0 0 27.785 27.94">
  <g id="Group_5271" data-name="Group 5271" transform="translate(-657.154 -802.692)">
    <g id="Group_5177" data-name="Group 5177" transform="translate(657.154 802.692)">
      <path id="Path_5425" data-name="Path 5425" d="M743.29,856.321a1.876,1.876,0,1,0,.446-3.7,1.877,1.877,0,0,0-.446,3.7Zm-.289-2a.756.756,0,0,1,.736-.577.8.8,0,0,1,.182.022.759.759,0,1,1-.918.556Z" transform="translate(-733.972 -847.972)" fill="#bababa"/>
      <path id="Path_5426" data-name="Path 5426" d="M684.858,819.817,681.941,815l1.345-5.471a.558.558,0,0,0-.409-.677L677.4,807.5l-2.75-4.542a.559.559,0,0,0-.767-.189l-4.543,2.75-5.157-1.267a.564.564,0,0,0-.424.064.557.557,0,0,0-.253.345l-1.266,5.158-4.821,2.918a.557.557,0,0,0-.253.345.565.565,0,0,0,.064.423l2.918,4.819-1.344,5.472a.561.561,0,0,0,.064.422.553.553,0,0,0,.345.253l5.472,1.345,2.75,4.542a.553.553,0,0,0,.345.253.621.621,0,0,0,.134.015.558.558,0,0,0,.289-.081l4.542-2.751,5.157,1.267a.513.513,0,0,0,.133.016.56.56,0,0,0,.542-.426l1.267-5.156,4.82-2.919a.557.557,0,0,0,.189-.766Zm-10.87-15.8,1.882,3.108-4.991-1.226Zm-9.526,1.456,4.839,1.19h0l7.6,1.867.015,0,5.151,1.266-1.267,5.152v0l-.865,3.52-2.42-3.15c-.011-.014-.027-.021-.038-.034a.571.571,0,0,0-.173-.128.5.5,0,0,0-.1-.034.472.472,0,0,0-.1-.015.479.479,0,0,0-.1.007.512.512,0,0,0-.108.027c-.016.006-.035,0-.051.012l-4.076,1.927-2.16-4.9c-.012-.026-.033-.043-.046-.067a.486.486,0,0,0-.064-.091,1,1,0,0,0-.172-.123.958.958,0,0,0-.206-.049.59.59,0,0,0-.107.012.519.519,0,0,0-.083.009l-7.628,2.428.981-3.993a0,0,0,0,1,0,0Zm-2.484,10.107,7.8-2.482,3.657,8.292-12.148-2.986Zm12.825,6.147-1.594-3.617,3.7-1.748,2.689,3.5-.705,2.868Zm-16.323-8.321,3.385-2.05-1.336,5.435Zm9.626,15.9-1.883-3.108,4.991,1.226Zm9.524-1.457-17.6-4.325.991-4.033,17.6,4.326Zm2.6-5.882,1.336-5.436,2.05,3.385Z" transform="translate(-657.154 -802.692)" fill="#bababa"/>
    </g>
  </g>
</svg>
