<svg xmlns="http://www.w3.org/2000/svg" width="32.857" height="32.14" viewBox="0 0 32.857 32.14">
  <g id="Group_6040" data-name="Group 6040" transform="translate(-132.517 -253.31)">
    <g id="Group_6040-2" data-name="Group 6040" transform="translate(132.517 253.31)">
      <path id="Path_5539" data-name="Path 5539" d="M155.08,408.17H138.691V393.725H155.08Zm-14.912-1.477H153.6V395.2H140.168Z" transform="translate(-137.913 -376.031)" fill="#a5a6ab"/>
      <path id="Path_5540" data-name="Path 5540" d="M132.517,496.64h17.566v1.477H132.517Z" transform="translate(-132.517 -465.977)" fill="#a5a6ab"/>
      <path id="Path_5541" data-name="Path 5541" d="M257.029,298.709h1.477v13.246h-1.477Z" transform="translate(-241.339 -292.988)" fill="#a5a6ab"/>
      <path id="Path_5544" data-name="Path 5544" d="M181.9,439.03h-7.372v-9.092a.9.9,0,0,1,.9-.9H181a.9.9,0,0,1,.9.9Zm-5.9-1.477h4.419v-7.044h-4.419Z" transform="translate(-169.235 -406.89)" fill="#a5a6ab"/>
      <path id="Path_5545" data-name="Path 5545" d="M190.413,461.924a.883.883,0,1,1,.883-.883A.883.883,0,0,1,190.413,461.924Zm0-1.477a.6.6,0,1,0,.6.6A.6.6,0,0,0,190.413,460.447Z" transform="translate(-182.346 -434.092)" fill="#a5a6ab"/>
      <path id="Path_5546" data-name="Path 5546" d="M182.362,314.605h-7.248v-7.111a.9.9,0,0,1,.9-.9h5.442a.9.9,0,0,1,.9.9l0,7.111Zm-5.771-1.477h4.294v-5.058h-4.294Z" transform="translate(-169.746 -299.879)" fill="#a5a6ab"/>
      <path id="Path_5547" data-name="Path 5547" d="M170.779,358.451h8.343v1.477h-8.343Z" transform="translate(-165.957 -345.202)" fill="#a5a6ab"/>
      <path id="Path_5548" data-name="Path 5548" d="M198.025,312.455H199.5v6.534h-1.477Z" transform="translate(-189.77 -305.002)" fill="#a5a6ab"/>
      <path id="Path_5549" data-name="Path 5549" d="M180.973,332.528h5.771V334h-5.771Z" transform="translate(-174.867 -322.545)" fill="#a5a6ab"/>
      <path id="Path_5550" data-name="Path 5550" d="M273.415,408.17H257.026V393.725h16.389ZM258.5,406.694h13.435V395.2H258.5Z" transform="translate(-241.336 -376.031)" fill="#a5a6ab"/>
      <path id="Path_5551" data-name="Path 5551" d="M253.864,496.64H271.43v1.477H253.864Z" transform="translate(-238.573 -465.977)" fill="#a5a6ab"/>
      <path id="Path_5552" data-name="Path 5552" d="M169.993,271.743h-1.477V259.427l-6.7-4.356-7.243,4.7h-.451l-7.227-4.7-6.728,4.371v12.3h-1.477v-13.1l8.2-5.331,7.453,4.846,7.468-4.846,8.175,5.312Z" transform="translate(-137.914 -253.31)" fill="#a5a6ab"/>
      <path id="Path_5553" data-name="Path 5553" d="M300.35,439.03h-7.369v-9.092a.9.9,0,0,1,.9-.9h5.563a.9.9,0,0,1,.9.9v9.092Zm-5.892-1.477h4.419v-7.044h-4.419Z" transform="translate(-272.76 -406.89)" fill="#a5a6ab"/>
      <path id="Path_5554" data-name="Path 5554" d="M308.853,461.924a.883.883,0,1,1,.883-.883A.883.883,0,0,1,308.853,461.924Zm0-1.477a.6.6,0,1,0,.6.6A.6.6,0,0,0,308.853,460.447Z" transform="translate(-285.861 -434.092)" fill="#a5a6ab"/>
      <path id="Path_5555" data-name="Path 5555" d="M300.815,314.605h-7.246v-7.111a.9.9,0,0,1,.9-.9h5.442a.9.9,0,0,1,.9.9Zm-5.77-1.477h4.293v-5.058h-4.293Z" transform="translate(-273.274 -299.879)" fill="#a5a6ab"/>
      <path id="Path_5556" data-name="Path 5556" d="M289.2,358.451h8.343v1.477H289.2Z" transform="translate(-269.454 -345.202)" fill="#a5a6ab"/>
      <path id="Path_5557" data-name="Path 5557" d="M316.444,312.455h1.477v6.534h-1.477Z" transform="translate(-293.267 -305.002)" fill="#a5a6ab"/>
      <path id="Path_5558" data-name="Path 5558" d="M299.428,332.528H305.2V334h-5.771Z" transform="translate(-278.395 -322.545)" fill="#a5a6ab"/>
    </g>
  </g>
</svg>
