<svg xmlns="http://www.w3.org/2000/svg" width="26.123" height="13.605" viewBox="0 0 26.123 13.605">
  <g id="Group_6082" data-name="Group 6082" transform="translate(-429 -471.828)">
    <path id="Path_5532" data-name="Path 5532" d="M449.949,484.619a1.136,1.136,0,0,0,.846-.766h2.518v-3.589l-.993-3.611H439.793v-.438l2.939-1.977-3.585-2.41-3.586,2.411,2.939,1.977v.438h-6.7l-.993,3.611v3.589h2.518a1.136,1.136,0,0,0,.846.766H429v.814h26.123v-.814Zm.565-7.34h1.33l.82,2.985h-2.15Zm-3.248,0h2.621v2.985h-2.621Zm2.216,7.34h-2.044a1.134,1.134,0,0,0,.694-.453h.655a1.139,1.139,0,0,0,.695.453Zm-5.464-7.34h2.621v2.985h-2.621Zm2.96,7.34h-9.833a1.132,1.132,0,0,0,.694-.453h8.444a1.137,1.137,0,0,0,.695.453Zm-6.246-7.34h2.66v2.985h-2.66Zm-4.049-3.04,2.463-1.656,2.463,1.656-2.463,1.656Zm.8,3.04h2.621v2.985h-2.621Zm-3.249,0h2.621v2.985h-2.621Zm-.626,2.985h-2.15l.82-2.985h1.33Zm1.726,3.9h.655a1.135,1.135,0,0,0,.694.453H434.64A1.133,1.133,0,0,0,435.335,484.166Z" transform="translate(0 0)" fill="#fff"/>
  </g>
</svg>
