<svg id="Group_5199" data-name="Group 5199" xmlns="http://www.w3.org/2000/svg" width="12.127" height="22" viewBox="0 0 12.127 22">
  <g id="Rounded_Rectangle_13_copy" data-name="Rounded Rectangle 13 copy" fill="#fff">
    <path d="M 6.0634765625 21 C 3.271466493606567 21 0.999996542930603 19.20561027526855 0.999996542930603 17 L 0.999996542930603 5 C 0.999996542930603 2.794389963150024 3.271466493606567 1 6.0634765625 1 C 8.855486869812012 1 11.12695693969727 2.794389963150024 11.12695693969727 5 L 11.12695693969727 17 C 11.12695693969727 19.20561027526855 8.855486869812012 21 6.0634765625 21 Z" stroke="none"/>
    <path d="M 6.0634765625 2 C 4.923796653747559 2 3.824826240539551 2.367219924926758 3.048357009887695 3.007509231567383 C 2.656826972961426 3.33036994934082 1.999996185302734 4.018539428710938 1.999996185302734 5 L 1.999996185302734 17 C 1.999996185302734 17.98146057128906 2.656826972961426 18.66963005065918 3.048357009887695 18.99249076843262 C 3.824826240539551 19.63278007507324 4.923796653747559 20 6.0634765625 20 C 7.203156471252441 20 8.302126884460449 19.63278007507324 9.078596115112305 18.99249076843262 C 9.470127105712891 18.66963005065918 10.12695693969727 17.98146057128906 10.12695693969727 17 L 10.12695693969727 5 C 10.12695693969727 4.018539428710938 9.470127105712891 3.33036994934082 9.078596115112305 3.007509231567383 C 8.302126884460449 2.367219924926758 7.203156471252441 2 6.0634765625 2 M 6.0634765625 0 C 9.412246704101562 0 12.12695693969727 2.238580703735352 12.12695693969727 5 L 12.12695693969727 17 C 12.12695693969727 19.76141929626465 9.412246704101562 22 6.0634765625 22 C 2.714706420898438 22 -3.814697265625e-06 19.76141929626465 -3.814697265625e-06 17 L -3.814697265625e-06 5 C -3.814697265625e-06 2.238580703735352 2.714706420898438 0 6.0634765625 0 Z" stroke="none" fill="#ef804a"/>
  </g>
  <g id="Group_3640" data-name="Group 3640" transform="translate(5.063 7)">
    <rect id="Rectangle_3653" data-name="Rectangle 3653" width="2" height="2" fill="#717171"/>
    <rect id="Rectangle_3654" data-name="Rectangle 3654" width="2" height="2" transform="translate(0 3)" fill="#717171"/>
    <rect id="Rectangle_3655" data-name="Rectangle 3655" width="2" height="2" transform="translate(0 6)" fill="#717171"/>
  </g>
</svg>
