<svg xmlns="http://www.w3.org/2000/svg" width="53.675" height="41.344" viewBox="0 0 53.675 41.344">
  <g id="Group_5943" data-name="Group 5943" transform="translate(355.345 -99.414)">
    <g id="Group_5944" data-name="Group 5944" transform="translate(-355.345 99.414)">
      <path id="Path_5500" data-name="Path 5500" d="M-302.184,115.623l-11.3-7.061v-4.011a1.132,1.132,0,0,0-1.13-1.13,1.132,1.132,0,0,0-1.13,1.13v2.6l-12.2-7.568a1.127,1.127,0,0,0-1.187,0l-25.7,16.041a1.106,1.106,0,0,0-.34,1.525,1.106,1.106,0,0,0,1.525.34l3.446-2.147v24.231a1.132,1.132,0,0,0,1.13,1.13,1.132,1.132,0,0,0,1.13-1.13l0-25.586,19.43-12.144,19.43,12.144v25.643a1.132,1.132,0,0,0,1.13,1.13,1.132,1.132,0,0,0,1.13-1.13V115.34l3.447,2.147a1.1,1.1,0,0,0,.565.17,1.111,1.111,0,0,0,.96-.507,1.106,1.106,0,0,0-.338-1.527Z" transform="translate(355.345 -99.414)" fill="#fff"/>
      <path id="Path_5503" data-name="Path 5503" d="M-179.814,209.733a3.329,3.329,0,0,0-.96-1.412,2.672,2.672,0,0,0-1.412-.622,3.365,3.365,0,0,1-1.47.4,3.174,3.174,0,0,1-1.47-.4,3.991,3.991,0,0,0-1.412.622,2.658,2.658,0,0,0-.96,1.412,9.208,9.208,0,0,0-.282,1.3l-1.072,4.858a.71.71,0,0,0,.508.847.648.648,0,0,0,.847-.507l1.412-5.366-.508,5.307a.95.95,0,0,0,.508.96c-.225,3.559-.508,7.061-.677,10.62a.971.971,0,0,0,.79.96.9.9,0,0,0,1.017-.79c.395-3.277.735-6.5,1.072-9.772h.34l1.072,9.772a.849.849,0,0,0,.96.79.893.893,0,0,0,.847-.96l-.735-10.62a.983.983,0,0,0,.507-1.017l-.452-5.366,1.412,5.366a.667.667,0,0,0,.847.507.748.748,0,0,0,.565-.847l-1.072-4.859a3.933,3.933,0,0,0-.223-1.183Z" transform="translate(210.524 -187.373)" fill="#fff"/>
      <path id="Path_5504" data-name="Path 5504" d="M-169.174,183.919a2.316,2.316,0,0,1-4.631,0,2.316,2.316,0,1,1,4.631,0" transform="translate(198.301 -166.19)" fill="#fff"/>
    </g>
  </g>
</svg>
