<svg xmlns="http://www.w3.org/2000/svg" width="23.245" height="24" viewBox="0 0 23.245 24">
  <g id="Group_6140" data-name="Group 6140" transform="translate(-441 -406.828)">
    <path id="Path_5514" data-name="Path 5514" d="M463.009,407.13a.648.648,0,0,0-.985.076l-6.066,8.313-2.729,3.639-2.022-2.7a2.467,2.467,0,0,0,.3-3.235l-4.421-6.09a.741.741,0,0,0-1.189.884l3.638,5a.358.358,0,0,1-.076.48l-.632.455a.358.358,0,0,1-.48-.076l-3.638-5.028a.74.74,0,1,0-1.187.884l3.638,5a.357.357,0,0,1-.076.48l-.632.455a.357.357,0,0,1-.48-.076l-3.638-5a.741.741,0,1,0-1.188.884l4.4,6.065a2.46,2.46,0,0,0,3.259.657l2.477,3.538-4.775,6.368a1.7,1.7,0,1,0,2.754,2l3.967-5.635L457.2,430.1a1.7,1.7,0,1,0,2.754-2l-4.8-6.368,1.617-2.3.556.4a2.065,2.065,0,0,0,2.932-.556l1.34-2.1a19.37,19.37,0,0,0,2.5-5.862,4.386,4.386,0,0,0-1.086-4.2Z" transform="translate(0)" fill="#ef804a"/>
  </g>
</svg>
