<svg xmlns="http://www.w3.org/2000/svg" width="28.643" height="28.612" viewBox="0 0 28.643 28.612">
  <g id="Group_6123" data-name="Group 6123" transform="translate(-12.931 -230.034)">
    <g id="Group_6075" data-name="Group 6075" transform="translate(12.931 230.034)">
      <path id="Path_5563" data-name="Path 5563" d="M36.091,230.034H18.383a5.444,5.444,0,0,0-5.452,5.421v17.739a5.451,5.451,0,0,0,5.452,5.452H36.122a5.451,5.451,0,0,0,5.452-5.452V235.455a5.491,5.491,0,0,0-5.482-5.421Zm2.591,23.16a2.591,2.591,0,0,1-2.591,2.591H18.383a2.591,2.591,0,0,1-2.591-2.591V235.455a2.565,2.565,0,0,1,2.591-2.56H36.122a2.584,2.584,0,0,1,2.591,2.56v17.739Z" transform="translate(-12.931 -230.034)" fill="#ef804a"/>
      <path id="Path_5564" data-name="Path 5564" d="M112.646,290.034h-3.765a1.446,1.446,0,0,0-1.446,1.446v14.547a.571.571,0,0,0,.572.572h1.716a.572.572,0,0,0,.572-.572v-5.542h2.5a5.208,5.208,0,0,0,5.211-5.572,5.309,5.309,0,0,0-5.361-4.879Zm.18,7.589h-2.5V292.9h2.5a2.364,2.364,0,0,1,0,4.728Z" transform="translate(-97.948 -284.01)" fill="#ef804a"/>
    </g>
  </g>
</svg>
