<svg id="Group_6135" data-name="Group 6135" xmlns="http://www.w3.org/2000/svg" width="21.185" height="20.282" viewBox="0 0 21.185 20.282">
  <path id="Path_5396" data-name="Path 5396" d="M915.173,847.536l4.13,3a1.346,1.346,0,0,1,.49,1.5l-1.578,4.856a1.347,1.347,0,0,0,2.073,1.506l4.13-3a1.343,1.343,0,0,1,1.582,0l4.13,3A1.347,1.347,0,0,0,932.2,856.9l-1.577-4.856a1.344,1.344,0,0,1,.489-1.5l4.129-3a1.347,1.347,0,0,0-.791-2.436h-5.105a1.346,1.346,0,0,1-1.28-.93l-1.577-4.854a1.347,1.347,0,0,0-2.562,0l-1.578,4.854a1.345,1.345,0,0,1-1.28.93h-5.1a1.347,1.347,0,0,0-.791,2.436Z" transform="translate(-914.615 -838.384)" fill="#bababa"/>
</svg>
