<svg xmlns="http://www.w3.org/2000/svg" width="22" height="20.433" viewBox="0 0 22 20.433">
  <g id="Group_6036" data-name="Group 6036" transform="translate(-165.172 -302.31)">
    <g id="Group_6035" data-name="Group 6035" transform="translate(165.172 302.31)">
      <path id="Path_5536" data-name="Path 5536" d="M165.819,302.311h14.844a.648.648,0,0,1,.647.647v11.373a.648.648,0,0,1-.647.647H169.692l-3.43,3.232a.646.646,0,0,1-.913-.028.639.639,0,0,1-.175-.443l0-14.782a.648.648,0,0,1,.647-.647Zm14.2,1.294H166.467v12.638l2.5-2.352a.647.647,0,0,1,.475-.208h10.577Z" transform="translate(-165.172 -302.31)" fill="#fff"/>
      <path id="Path_5537" data-name="Path 5537" d="M282.973,405.853a.647.647,0,1,1,1.294,0v4.7h7.325a.643.643,0,0,1,.475.208l1.448,1.364v-8.355H288.3a.647.647,0,0,1,0-1.294h5.862a.648.648,0,0,1,.647.647v10.5a.656.656,0,0,1-.177.443.646.646,0,0,1-.913.028l-2.382-2.244h-7.718a.648.648,0,0,1-.647-.647v-5.345Z" transform="translate(-272.809 -393.832)" fill="#fff"/>
      <path id="Path_5538" data-name="Path 5538" d="M202.335,338.726a.647.647,0,1,1,0-1.294H208.1a.647.647,0,1,1,0,1.294Zm0,5.177a.647.647,0,1,1,0-1.294h8.543a.647.647,0,1,1,0,1.294Zm0-2.588a.647.647,0,1,1,0-1.294h8.543a.647.647,0,1,1,0,1.294Z" transform="translate(-198.538 -334.402)" fill="#fff"/>
    </g>
  </g>
</svg>
