<svg xmlns="http://www.w3.org/2000/svg" width="19.224" height="30.754" viewBox="0 0 19.224 30.754">
  <g id="Group_5247" data-name="Group 5247" transform="translate(-165.629 -391.989)">
    <path id="Path_5484" data-name="Path 5484" d="M185.184,405.838a18.307,18.307,0,0,1-.529,4.406,28.45,28.45,0,0,0-17.169,0,18.306,18.306,0,0,1-.529-4.406c0-9.3,4.077-13.1,9.112-13.1S185.184,396.542,185.184,405.838Z" transform="translate(-0.829 -0.49)" fill="#e17400"/>
    <path id="Path_5485" data-name="Path 5485" d="M185.04,460.956V459.5c0-4.759-4.177-8.617-9.33-8.617h0c-5.153,0-9.33,3.858-9.33,8.617v1.453Z" transform="translate(-0.469 -38.473)" fill="#f9e8d3"/>
    <path id="Rectangle_4372" data-name="Rectangle 4372" d="M0,0H4.9a0,0,0,0,1,0,0V3.437A2.452,2.452,0,0,1,2.451,5.889h0A2.451,2.451,0,0,1,0,3.437V0A0,0,0,0,1,0,0Z" transform="translate(172.789 410.336)" fill="#fff"/>
    <path id="Path_5486" data-name="Path 5486" d="M186.174,418.369a.93.93,0,0,1-.965.891h-.064v1.207a6.6,6.6,0,0,1-13.167,0V419.26h-.068a.894.894,0,1,1,0-1.782h.068v-3.159a19.18,19.18,0,0,0,13.167,0v3.159h.064A.93.93,0,0,1,186.174,418.369Z" transform="translate(-3.321 -14.587)" fill="#fff"/>
    <line id="Line_1942" data-name="Line 1942" y1="2.916" transform="translate(169.966 419.566)" fill="#fff"/>
    <path id="Path_5487" data-name="Path 5487" d="M177.973,412.531v-.837a6.791,6.791,0,0,0,3.084-2.459,15.912,15.912,0,0,1,2.657.757l.311.123.076-.3a18.521,18.521,0,0,0,.536-4.464c0-12.057-6.572-13.359-9.4-13.359s-9.393,1.3-9.393,13.359a18.522,18.522,0,0,0,.536,4.464l.076.3.311-.123a15.935,15.935,0,0,1,2.657-.758,6.8,6.8,0,0,0,3.082,2.458v.835a9.014,9.014,0,0,0-6.878,8.5v1.713h19.224V421.03A9.011,9.011,0,0,0,177.973,412.531ZM166.859,409.4a18.1,18.1,0,0,1-.451-4.048c0-8.159,3.218-12.839,8.83-12.839s8.834,4.679,8.834,12.839a18.1,18.1,0,0,1-.451,4.048,16.706,16.706,0,0,0-2.276-.629,5.915,5.915,0,0,0,.759-2.885v-.964a1.139,1.139,0,0,0,0-2.267v-3.336l-.407.186a18.894,18.894,0,0,1-12.917,0l-.407-.186v3.335a1.139,1.139,0,0,0,0,2.269v.964a5.912,5.912,0,0,0,.758,2.884A16.951,16.951,0,0,0,166.859,409.4Zm2.08-3.515v-1.467h-.35a.633.633,0,1,1,0-1.262h.35v-3.012a20,20,0,0,0,12.6,0v3.013h.345a.633.633,0,1,1,0,1.262h-.345v1.467a6.322,6.322,0,0,1-12.6,0Zm8.471,6.016v2.494a1.645,1.645,0,0,1-1.7,1.574h-.93a1.645,1.645,0,0,1-1.7-1.574V411.9a7.374,7.374,0,0,0,4.339,0Zm6.879,10.326H180.8v-2.657h-.563v2.657h-9.987v-2.657h-.563v2.657h-3.492V421.03a8.468,8.468,0,0,1,6.315-7.958v1.319a2.189,2.189,0,0,0,2.268,2.094h.93a2.189,2.189,0,0,0,2.268-2.094v-1.313a8.464,8.464,0,0,1,6.316,7.953Z" fill="#e68604"/>
    <ellipse id="Ellipse_615" data-name="Ellipse 615" cx="0.823" cy="0.76" rx="0.823" ry="0.76" transform="translate(172.543 402.787)" fill="#e68604"/>
    <ellipse id="Ellipse_616" data-name="Ellipse 616" cx="0.823" cy="0.76" rx="0.823" ry="0.76" transform="translate(176.486 402.787)" fill="#e68604"/>
    <path id="Path_5488" data-name="Path 5488" d="M190.16,435.911a3.038,3.038,0,0,1-4.74.082" transform="translate(-12.36 -28.691)" fill="none" stroke="#e68604" stroke-linecap="round" stroke-linejoin="round" stroke-width="1"/>
  </g>
</svg>
