<svg xmlns="http://www.w3.org/2000/svg" width="36.229" height="36.154" viewBox="0 0 36.229 36.154">
  <g id="Group_6037" data-name="Group 6037" transform="translate(-1342.758 -383.824)">
    <path id="Path_5357" data-name="Path 5357" d="M1354.341,403.553c.674-.248,1.761-2.8,1.761-2.8-.106-.056-9.1,3.169-12.372,6.346a.728.728,0,0,0-.222.523v2.607a.728.728,0,0,0,.73.728h16.635C1359.607,404.446,1354.341,403.553,1354.341,403.553Z" transform="translate(0 8.272)" fill="none" stroke="#a5a6ab" stroke-linecap="round" stroke-linejoin="round" stroke-width="1.5"/>
    <path id="Path_5358" data-name="Path 5358" d="M1372.141,407.1c-3.2-3.1-12.267-6.4-12.373-6.346h0s1.085,2.553,1.759,2.8c0,0-5.264.893-6.53,7.4h16.634a.728.728,0,0,0,.73-.728v-2.607A.733.733,0,0,0,1372.141,407.1Z" transform="translate(5.875 8.272)" fill="none" stroke="#a5a6ab" stroke-linecap="round" stroke-linejoin="round" stroke-width="1.5"/>
    <path id="Path_5359" data-name="Path 5359" d="M1361.876,406.373a6.53,6.53,0,0,0,.05-1.238,8.576,8.576,0,0,0,2.48-5.344h.022a1.368,1.368,0,0,0,.52-2.587,8.363,8.363,0,0,0,.068-4.892c.283.574.469,1.108.633,1.464.1.221.493,0,.493,0a5.448,5.448,0,0,0-1.992-5.321,3.786,3.786,0,0,1,2.781,1.062c-1.753-3.027-4.078-2.225-4.093-2.219-3.177-4.545-10.231-2.03-10.231-2.03,1.93-.367,3.617.75,4.953.893-6.5-.319-8.216,5.9-8.216,5.9.25-.789,1.174-1.354,2.345-1.764a8.2,8.2,0,0,0-1.236,4.353,8.293,8.293,0,0,0,.4,2.553,1.368,1.368,0,0,0,.52,2.587h.023a8.573,8.573,0,0,0,2.48,5.344,6.438,6.438,0,0,0,.05,1.241" transform="translate(2.984)" fill="none" stroke="#a5a6ab" stroke-linecap="round" stroke-linejoin="round" stroke-width="1.5"/>
  </g>
</svg>
