<svg xmlns="http://www.w3.org/2000/svg" width="25.804" height="26.693" viewBox="0 0 25.804 26.693">
  <g id="Group_6120" data-name="Group 6120" transform="translate(-97.586 -148.241)">
    <g id="Group_6071" data-name="Group 6071" transform="translate(97.586 148.241)">
      <path id="Path_5561" data-name="Path 5561" d="M101.59,168.706h17.8a4,4,0,0,0,4-4V152.245a4,4,0,0,0-4-4h-17.8a4.005,4.005,0,0,0-4,4V164.7A4,4,0,0,0,101.59,168.706Zm-1.335-16.461a1.335,1.335,0,0,1,1.335-1.335h17.8a1.335,1.335,0,0,1,1.335,1.335V164.7a1.335,1.335,0,0,1-1.335,1.335h-17.8a1.335,1.335,0,0,1-1.335-1.335Z" transform="translate(-97.586 -148.241)" fill="#ef804a"/>
      <path id="Path_5562" data-name="Path 5562" d="M130.586,310.241H146.6v2.669H130.586Z" transform="translate(-125.692 -286.217)" fill="#ef804a"/>
    </g>
  </g>
</svg>
