<svg xmlns="http://www.w3.org/2000/svg" width="13.902" height="13.902" viewBox="0 0 13.902 13.902">
  <g id="Group_6044" data-name="Group 6044" transform="translate(-100.103 -257.897)">
    <path id="Path_5559" data-name="Path 5559" d="M107.054,257.9a6.951,6.951,0,1,0,4.915,2.036,6.951,6.951,0,0,0-4.915-2.036Zm-.139,2.572a1.148,1.148,0,0,1,.811,1.964,1.145,1.145,0,0,1-.811.33,1.127,1.127,0,0,1-1.134-1.142,1.143,1.143,0,0,1,1.142-1.152Zm2.179,8.659a.1.1,0,0,1-.1.1h-3.779a.1.1,0,0,1-.1-.1v-.556a.1.1,0,0,1,.1-.1H106a.348.348,0,0,0,.1-.2,1.749,1.749,0,0,0,.013-.238v-2.88c0-.417-.139-.556-.556-.574h-.535v-.491l3.128-.111v4.148a.418.418,0,0,0,.1.341H109a.1.1,0,0,1,.1.1Z" transform="translate(0)" fill="#00baad"/>
  </g>
</svg>
