<svg id="Group_5158" data-name="Group 5158" xmlns="http://www.w3.org/2000/svg" width="17.502" height="16.756" viewBox="0 0 17.502 16.756">
  <path id="Path_5396" data-name="Path 5396" d="M915.076,845.945l3.412,2.479a1.112,1.112,0,0,1,.4,1.243l-1.3,4.012a1.113,1.113,0,0,0,1.712,1.244l3.412-2.479a1.11,1.11,0,0,1,1.307,0l3.412,2.479a1.113,1.113,0,0,0,1.712-1.244l-1.3-4.012a1.11,1.11,0,0,1,.4-1.243l3.411-2.479a1.113,1.113,0,0,0-.654-2.013h-4.218a1.112,1.112,0,0,1-1.058-.769l-1.3-4.01a1.113,1.113,0,0,0-2.117,0l-1.3,4.01a1.111,1.111,0,0,1-1.057.769h-4.217a1.113,1.113,0,0,0-.654,2.013Z" transform="translate(-914.615 -838.384)" fill="#bababa"/>
</svg>
