<svg xmlns="http://www.w3.org/2000/svg" width="22.12" height="21.805" viewBox="0 0 22.12 21.805">
  <g id="Group_6003" data-name="Group 6003" transform="translate(-474 -444.828)">
    <g id="Group_6002" data-name="Group 6002" transform="translate(474 444.828)">
      <path id="Path_5510" data-name="Path 5510" d="M513.3,445.459v2.84a.631.631,0,0,0,1.262,0v-2.84a.631.631,0,0,0-1.262,0Z" transform="translate(-509.171 -444.828)" fill="#bababa"/>
      <path id="Path_5511" data-name="Path 5511" d="M633.3,445.459v2.84a.631.631,0,0,0,1.262,0v-2.84a.631.631,0,0,0-1.262,0Z" transform="translate(-616.549 -444.828)" fill="#bababa"/>
      <path id="Path_5512" data-name="Path 5512" d="M494.763,465.828h-2.114v1.578a1.262,1.262,0,0,1-2.524,0v-1.578h-10.1v1.578a1.262,1.262,0,0,1-2.524,0v-1.578h-2.146A1.347,1.347,0,0,0,474,467.185v16.882a1.347,1.347,0,0,0,1.357,1.357h19.406a1.347,1.347,0,0,0,1.357-1.357V467.185a1.346,1.346,0,0,0-1.357-1.357Zm-14.1,15.083a.7.7,0,0,1-.694.694h-3.03a.7.7,0,0,1-.694-.694V478.2a.7.7,0,0,1,.694-.694h3.03a.7.7,0,0,1,.694.694Zm0-6.626a.7.7,0,0,1-.694.694h-3.03a.7.7,0,0,1-.694-.694v-2.714a.7.7,0,0,1,.694-.694h3.03a.7.7,0,0,1,.694.694Zm6.627,6.626a.7.7,0,0,1-.694.694h-3.03a.7.7,0,0,1-.694-.694V478.2a.7.7,0,0,1,.694-.694h3.03a.7.7,0,0,1,.694.694Zm0-6.626a.7.7,0,0,1-.694.694h-3.03a.7.7,0,0,1-.694-.694v-2.714a.7.7,0,0,1,.694-.694h3.03a.7.7,0,0,1,.694.694Zm6.626,6.626a.7.7,0,0,1-.694.694h-3.03a.7.7,0,0,1-.694-.694V478.2a.7.7,0,0,1,.694-.694h3.03a.7.7,0,0,1,.694.694Zm0-6.626a.7.7,0,0,1-.694.694h-3.03a.7.7,0,0,1-.694-.694v-2.714a.7.7,0,0,1,.694-.694h3.03a.7.7,0,0,1,.694.694Z" transform="translate(-474 -463.619)" fill="#bababa"/>
    </g>
  </g>
</svg>
