<svg xmlns="http://www.w3.org/2000/svg" width="23.656" height="29.57" viewBox="0 0 23.656 29.57">
  <g id="Group_6025" data-name="Group 6025" transform="translate(-459 -399.828)">
    <g id="Group_6025-2" data-name="Group 6025" transform="translate(459 399.828)">
      <path id="Path_5527" data-name="Path 5527" d="M479.7,403.77h-3.941V401.8a1.973,1.973,0,0,0-1.972-1.972h-5.914A1.973,1.973,0,0,0,465.9,401.8v1.972h-3.943A2.957,2.957,0,0,0,459,406.727v19.713a2.957,2.957,0,0,0,2.957,2.957H479.7a2.957,2.957,0,0,0,2.957-2.957V406.727a2.957,2.957,0,0,0-2.957-2.957ZM467.872,401.8h5.914v1.972h-5.914Zm12.812,24.641a.985.985,0,0,1-.985.985H461.957a.985.985,0,0,1-.985-.985V406.727a.985.985,0,0,1,.985-.985h2.958v.985a1.973,1.973,0,0,0,1.972,1.972h7.886a1.973,1.973,0,0,0,1.972-1.972v-.985H479.7a.985.985,0,0,1,.985.985Z" transform="translate(-459 -399.828)" fill="#ef804a"/>
      <path id="Path_5528" data-name="Path 5528" d="M521.818,519.828H509.99a.985.985,0,1,0,0,1.97h11.83a.985.985,0,0,0,0-1.97Z" transform="translate(-504.075 -508)" fill="#ef804a"/>
      <path id="Path_5529" data-name="Path 5529" d="M521.818,559.824h-11.83a.986.986,0,0,0,0,1.972h11.83a.986.986,0,0,0,0-1.972Z" transform="translate(-504.075 -544.054)" fill="#ef804a"/>
      <path id="Path_5530" data-name="Path 5530" d="M521.818,599.832h-11.83a.985.985,0,0,0,0,1.971h11.83a.985.985,0,0,0,0-1.971Z" transform="translate(-504.075 -580.119)" fill="#ef804a"/>
    </g>
  </g>
</svg>
