<svg xmlns="http://www.w3.org/2000/svg" width="22.054" height="27.167" viewBox="0 0 22.054 27.167">
  <g id="Group_6124" data-name="Group 6124" transform="translate(-482 -429.828)">
    <path id="Path_5531" data-name="Path 5531" d="M499.92,432.55h-2.177l-.681-1.961a1.142,1.142,0,0,0-1.081-.761h-5.923a1.141,1.141,0,0,0-1.08.761l-.672,1.961h-2.174A4.133,4.133,0,0,0,482,436.682V450.1a4.129,4.129,0,0,0,3.566,4.1h0l-.776.942a1.136,1.136,0,1,0,1.754,1.446l1.933-2.343h9.087l1.933,2.343a1.137,1.137,0,0,0,1.755-1.446l-.776-.941h.009a4.13,4.13,0,0,0,3.566-4.1l0-13.414a4.132,4.132,0,0,0-4.131-4.132Zm-12.113,18.4a1.421,1.421,0,1,1,1.415-1.415A1.418,1.418,0,0,1,487.807,450.945Zm10.448,0a1.421,1.421,0,1,1,1.415-1.415A1.408,1.408,0,0,1,498.255,450.945Zm2.389-7.074a1.34,1.34,0,0,1-1.346,1.336H486.756a1.34,1.34,0,0,1-1.346-1.336V437.3a1.342,1.342,0,0,1,1.346-1.346H499.3a1.342,1.342,0,0,1,1.346,1.346Z" transform="translate(0 0)" fill="#ee7f49"/>
  </g>
</svg>
