<svg xmlns="http://www.w3.org/2000/svg" width="19.927" height="32.15" viewBox="0 0 19.927 32.15">
  <g id="Group_6024" data-name="Group 6024" transform="translate(-486 -400.828)">
    <g id="Group_6024-2" data-name="Group 6024" transform="translate(486 400.828)">
      <path id="Path_5524" data-name="Path 5524" d="M594.892,403.436a2.608,2.608,0,1,1-2.608-2.608,2.608,2.608,0,0,1,2.608,2.608Z" transform="translate(-578.538 -400.828)" fill="#ef804a"/>
      <path id="Path_5525" data-name="Path 5525" d="M493.615,422.139a2.524,2.524,0,0,0-5-.533l-2.558,10a1.628,1.628,0,0,0-.048.344c-.005.063-.011.126-.011.189a2.523,2.523,0,0,0,4.832,1.047c.064-.177,2.694-10.4,2.7-10.441a2.619,2.619,0,0,0,.082-.609Z" transform="translate(-486 -417.572)" fill="#ef804a"/>
      <path id="Path_5526" data-name="Path 5526" d="M505.329,456.564l-4.254-1.516-1.909-5.24a3.1,3.1,0,0,0-2.136-1.718c-2.11-.394-2.846,2.014-2.846,2.014l-1.57,6.6,4.456-2.6-.405-.875a.379.379,0,0,1,.689-.317l.533,1.147a.015.015,0,0,0,.005.006c.005.006,0,.013.006.019l1.027,2.214.1.21a1.146,1.146,0,0,0,.478.423l4.132,1.576L501,463.043,497.54,459.8l.692-3.181-.841-1.818-5.02,2.928-1.945,8.157-4.113,6.434a1.3,1.3,0,0,0-.229.774,1.664,1.664,0,0,0,.41,1.344,1.948,1.948,0,0,0,1.275.66,1.721,1.721,0,0,0,1.73-.913l4.387-6.885c.091-.184.211-.439.365-.778l.872-3.675,4.055,3.326-4.793,8.239a.475.475,0,1,0,.821.478l4.1-7.04-.006,5.581a1.722,1.722,0,0,0,1.686,1.459,1.8,1.8,0,0,0,1.343-.456,1.737,1.737,0,0,0,.613-1.23v-.412l-.034-6.962a2.03,2.03,0,0,0-.476-1.446l-.716-.675,2.854-4.91a1.262,1.262,0,0,0,1.414-1.135,1.046,1.046,0,0,0-.651-1.1Z" transform="translate(-486.063 -442.974)" fill="#ef804a"/>
    </g>
  </g>
</svg>
