<svg id="Group_6021" data-name="Group 6021" xmlns="http://www.w3.org/2000/svg" width="40.909" height="31.536" viewBox="0 0 40.909 31.536">
  <path id="Path_5517" data-name="Path 5517" d="M480.077,520.651c-.939-.307-4.958-1.617-6.953-2.286-1.012,2.61-6.356,16.726-4.513,19.153,2.03,2.678,9.323-.461,11.445,0s1.862-1.014,1.862-1.014Z" transform="translate(-464.308 -507.076)" fill="#bababa"/>
  <path id="Path_5518" data-name="Path 5518" d="M515.315,448.474c-.557-.76-3.725-.6-3.725-.6a7.371,7.371,0,0,0-1.322-2.044,6,6,0,0,0-2.3-.307s.158-2.5-.6-2.683c-1.454-.356-3.389,7.4-4,10.013a39.881,39.881,0,0,0,6.435,2.137l-.018-.147s.06-1.261.9-1.562c.566-.2,3.364-.776,4.147-1.562.574-.58.963-2.581.478-3.244Z" transform="translate(-494.198 -442.828)" fill="#bababa"/>
  <path id="Path_5519" data-name="Path 5519" d="M585.663,506.964a20.119,20.119,0,0,0,4.8-2.095,8.672,8.672,0,0,1,.322-2.336c.18-.9-.06-1.415-.541-2.7-.086-.231-.478-2.8-1.261-2.885s-1.8,2.524-1.8,2.524-2.224,0-2.49.991c-.321,1.191-1.548,1.839-1.6,2.012-.184.671.14,2.492,1.208,2.771.653.17,1.126,1.017,1.359,1.722Z" transform="translate(-561.967 -488.855)" fill="#bababa"/>
  <path id="Path_5520" data-name="Path 5520" d="M606.977,556.707a1.513,1.513,0,0,1-.258-.315,31.28,31.28,0,0,1-4.9,2.238c.588,2.774.252,9.776.27,10.078.025.445-.266.721-.051,1.075.328.543.974.594,1.734.455s6.428,1.431,9.979-.054c4.356-2.622-2.911-11.962-6.772-13.477Z" transform="translate(-577.932 -539.42)" fill="#bababa"/>
  <path id="Path_5521" data-name="Path 5521" d="M446.117,604.426c-3.026-2.326-3.055-7.682-3.829-6.063-.723,1.511-.016,5.163,1.336,6.766,1.242,1.473,3.8,1.4,3.905.478" transform="translate(-442 -574.863)" fill="#bababa"/>
  <path id="Path_5522" data-name="Path 5522" d="M682.283,570.609c1.189.748,3.35-2.44,1.559-3.515-1.128-.676-1.252-.883-1.571-1.408-.765-1.259.236-4.779,2.168-5.233,1.436-.336,1.529.982.741,1.413-1.872,1.114-2.03,2.983-.755,3.893a3.191,3.191,0,0,1,1.543,2.03c.443,1.62-.888,4.2-3.445,5.005,0,0-1.422.321-1.685-.263" transform="translate(-645.143 -542.828)" fill="#bababa"/>
</svg>
