<svg xmlns="http://www.w3.org/2000/svg" width="24.98" height="23.859" viewBox="0 0 24.98 23.859">
  <g id="Group_6181" data-name="Group 6181" transform="translate(-469 -443.828)">
    <path id="Path_5515" data-name="Path 5515" d="M489.733,452.861c.028.191.045.382.064.573a19.616,19.616,0,0,1-.1,4.2c-.109.782-.264,1.565-.328,2.347a11.415,11.415,0,0,0,.2,3.6,3.8,3.8,0,0,0,.765,1.674c.227.255.51.465.755.7s.5.5.737.765a.742.742,0,0,1,.146.291c.082.264-.019.409-.309.4-.7-.019-1.4-.036-2.156-.064-.146-.191-.337-.409-.491-.647a18.09,18.09,0,0,1-1.4-2.694c-.281-.664-.555-1.329-.838-1.993-.028-.064-.055-.127-.092-.21-.319.055-.637.109-.973.163a5.182,5.182,0,0,1-.791,3.385c.155.019.281.036.418.045a5.636,5.636,0,0,1,1.592.364,2.5,2.5,0,0,1,.482.264.963.963,0,0,1,.246,1.428,1.34,1.34,0,0,1-.2.019c-2.184,0-4.368.009-6.552,0a9.217,9.217,0,0,1-1-.064,1.605,1.605,0,0,1-.846-.382c-.418-.337-.828-.692-1.237-1.037a3.839,3.839,0,0,1-2.675,1.474,11.353,11.353,0,0,1-3.093.191,3.448,3.448,0,0,1-1.766-.6,2.86,2.86,0,0,1-1.065-1.483,5.837,5.837,0,0,1-.109-2.775c.009-.036.028-.073.054-.146.163.118.319.236.465.345a7.587,7.587,0,0,0,4.477,1.52,6.311,6.311,0,0,0,2.092-.345c.054-.019.109-.054.155-.073-.082-.354-.163-.7-.227-1.046a6.28,6.28,0,0,1,.654-4.158,9.361,9.361,0,0,1,2.384-2.821,15.562,15.562,0,0,1,3.9-2.347c.064-.028.127-.064.218-.1a5.988,5.988,0,0,1,.246-2.248c.054-.21.127-.409.191-.619,1.073,1.245,3.048,1.928,6.014,2.1Zm3.922-3.1a1.818,1.818,0,0,0-.482.564,1.84,1.84,0,0,1-1.282.892,5.458,5.458,0,0,1-2.238-.009,1.058,1.058,0,0,1-.146-.045c-.036-.019-.054-.054-.118-.118a7.526,7.526,0,0,1,.182.774l.028.137c-2.949-.191-4.75-.909-5.451-2.184.236-.546.5-1.083.782-1.6.2-.373.428-.737.637-1.11a.637.637,0,0,0,.109-.309,3.182,3.182,0,0,1,.937-2.092c.255-.281.555-.528.883-.828a5.826,5.826,0,0,1,.409,1.865c.546-.392,1.083-.774,1.6-1.147a.537.537,0,0,1,.255.528c-.009.364-.045.728-.073,1.11.109.064.236.118.354.2a2.158,2.158,0,0,1,.81.928.75.75,0,0,0,.409.373c.81.354,1.61.727,2.411,1.091.092.045.182.082.282.127a.789.789,0,0,1-.3.854Zm-4.3,1.138v.009h0c.009,0,.009,0,0-.009C489.36,450.932,489.36,450.914,489.351,450.9Z" transform="translate(0)" fill="#ef804a"/>
  </g>
</svg>
