<svg xmlns="http://www.w3.org/2000/svg" width="35.929" height="35.935" viewBox="0 0 35.929 35.935">
  <g id="Group_5975" data-name="Group 5975" transform="translate(-561.491 -533.856)">
    <g id="Group_5977" data-name="Group 5977" transform="translate(577.048 547.908)">
      <g id="Group_5976" data-name="Group 5976">
        <path id="Path_5516" data-name="Path 5516" d="M576.864,548.549a2.647,2.647,0,0,0-2.647,2.645v.741h5.3V551.2a2.647,2.647,0,0,0-2.639-2.654h-.015Z" transform="translate(-574.217 -544.64)" fill="#ef804a"/>
        <path id="Path_5517" data-name="Path 5517" d="M578.386,547.043a1.692,1.692,0,1,1-1.692-1.692h0a1.692,1.692,0,0,1,1.692,1.692" transform="translate(-574.042 -545.351)" fill="#ef804a"/>
      </g>
    </g>
    <g id="Group_5974" data-name="Group 5974" transform="translate(561.491 533.856)">
      <path id="Path_5506" data-name="Path 5506" d="M579.456,533.856a3.365,3.365,0,0,0-1.051,6.561v2.716a8.7,8.7,0,0,0-4.334,1.8l-1.922-1.921a3.372,3.372,0,1,0-1.5,1.5l1.923,1.924a8.728,8.728,0,0,0-1.8,4.331h-2.719a3.361,3.361,0,1,0,0,2.116h2.716a8.7,8.7,0,0,0,1.8,4.334l-1.923,1.92a3.371,3.371,0,1,0,1.5,1.5l1.92-1.922a8.726,8.726,0,0,0,4.335,1.8v2.716a3.368,3.368,0,1,0,2.112,0v-2.718a8.718,8.718,0,0,0,4.331-1.8l1.924,1.924a3.364,3.364,0,1,0,1.5-1.5l-1.924-1.921a8.688,8.688,0,0,0,1.8-4.33h2.719a3.366,3.366,0,1,0,0-2.116h-2.72a8.7,8.7,0,0,0-1.8-4.329l1.925-1.925a3.367,3.367,0,1,0-1.5-1.5l-1.925,1.922a8.722,8.722,0,0,0-4.33-1.8v-2.72a3.363,3.363,0,0,0-1.06-6.557Zm0,2.114a1.253,1.253,0,1,1-1.248,1.249A1.235,1.235,0,0,1,579.456,535.97Zm-10.317,4.268a1.262,1.262,0,1,1-.89.373,1.25,1.25,0,0,1,.89-.373Zm20.641,0a1.256,1.256,0,0,1,.89.373,1.244,1.244,0,1,1-.89-.373Zm-10.324,4.947a6.622,6.622,0,0,1,4.666,1.908v0a.418.418,0,0,1,.031.033l.028.024a6.657,6.657,0,0,1,.033,9.307c-.022.017-.042.035-.061.053s-.04.045-.059.066a6.667,6.667,0,0,1-9.236.037v0a1.075,1.075,0,0,0-.092-.105c-.028-.026-.059-.053-.089-.077a6.666,6.666,0,0,1,.03-9.256h0q.031-.026.059-.051c.028-.028.054-.056.081-.088l.006-.007a6.61,6.61,0,0,1,4.6-1.848Zm-14.6,5.383a1.252,1.252,0,1,1-1.254,1.255A1.241,1.241,0,0,1,564.859,550.567Zm29.2,0a1.252,1.252,0,1,1-1.255,1.255A1.235,1.235,0,0,1,594.061,550.567Zm-24.979,10.312a1.256,1.256,0,0,1,.947.373,1.256,1.256,0,1,1-1.776,0,1.263,1.263,0,0,1,.83-.373Zm20.641,0a1.263,1.263,0,0,1,.95.373,1.256,1.256,0,1,1-1.777,0A1.257,1.257,0,0,1,589.722,560.879Zm-10.265,4.284a1.256,1.256,0,1,1-1.248,1.257A1.241,1.241,0,0,1,579.457,565.163Z" transform="translate(-561.491 -533.856)" fill="#ef804a"/>
    </g>
  </g>
</svg>
