<svg xmlns="http://www.w3.org/2000/svg" width="25.292" height="25.296" viewBox="0 0 25.292 25.296">
  <g id="Group_6134" data-name="Group 6134" transform="translate(-561.491 -533.856)">
    <g id="Group_5977" data-name="Group 5977" transform="translate(572.442 543.748)">
      <g id="Group_5976" data-name="Group 5976">
        <path id="Path_5516" data-name="Path 5516" d="M576.08,548.549a1.863,1.863,0,0,0-1.863,1.862v.521h3.731v-.516a1.863,1.863,0,0,0-1.858-1.868h-.01Z" transform="translate(-574.217 -545.797)" fill="#bababa"/>
        <path id="Path_5517" data-name="Path 5517" d="M577.384,546.542a1.191,1.191,0,1,1-1.191-1.191h0a1.191,1.191,0,0,1,1.191,1.191" transform="translate(-574.327 -545.351)" fill="#bababa"/>
      </g>
    </g>
    <g id="Group_5974" data-name="Group 5974" transform="translate(561.491 533.856)">
      <path id="Path_5506" data-name="Path 5506" d="M574.138,533.856a2.369,2.369,0,0,0-.74,4.619v1.912a6.125,6.125,0,0,0-3.051,1.266l-1.353-1.352a2.374,2.374,0,1,0-1.054,1.053l1.354,1.354a6.143,6.143,0,0,0-1.268,3.049h-1.914a2.366,2.366,0,1,0,0,1.49h1.912a6.125,6.125,0,0,0,1.266,3.051l-1.354,1.352a2.373,2.373,0,1,0,1.054,1.054l1.352-1.353a6.142,6.142,0,0,0,3.051,1.266v1.912a2.371,2.371,0,1,0,1.487,0v-1.913a6.136,6.136,0,0,0,3.049-1.268l1.354,1.354a2.368,2.368,0,1,0,1.055-1.057l-1.354-1.352a6.117,6.117,0,0,0,1.266-3.048h1.914a2.37,2.37,0,1,0,0-1.49h-1.915a6.122,6.122,0,0,0-1.267-3.047l1.355-1.355a2.37,2.37,0,1,0-1.054-1.052l-1.355,1.353a6.14,6.14,0,0,0-3.048-1.267v-1.915a2.367,2.367,0,0,0-.746-4.616Zm0,1.488a.882.882,0,1,1-.879.88A.87.87,0,0,1,574.138,535.344Zm-7.263,3a.888.888,0,1,1-.626.262.88.88,0,0,1,.626-.262Zm14.53,0a.884.884,0,0,1,.626.262.876.876,0,1,1-.626-.262Zm-7.267,3.483a4.662,4.662,0,0,1,3.285,1.343v0a.312.312,0,0,1,.021.023l.02.017a4.686,4.686,0,0,1,.023,6.551c-.016.012-.029.025-.043.037s-.028.032-.041.046a4.693,4.693,0,0,1-6.5.026v0a.741.741,0,0,0-.065-.074c-.02-.018-.041-.037-.063-.054a4.693,4.693,0,0,1,.021-6.516h0l.041-.036c.02-.02.038-.04.057-.062l0-.005a4.653,4.653,0,0,1,3.241-1.3Zm-10.276,3.789a.881.881,0,1,1-.883.884A.874.874,0,0,1,563.862,545.62Zm20.557,0a.881.881,0,1,1-.884.884A.869.869,0,0,1,584.418,545.62Zm-17.584,7.259a.884.884,0,0,1,.667.263.884.884,0,1,1-1.25,0,.889.889,0,0,1,.584-.263Zm14.53,0a.889.889,0,0,1,.669.263.884.884,0,1,1-1.251,0A.885.885,0,0,1,581.364,552.879Zm-7.226,3.015a.884.884,0,1,1-.879.885A.874.874,0,0,1,574.138,555.894Z" transform="translate(-561.491 -533.856)" fill="#bababa"/>
    </g>
  </g>
</svg>
