<svg xmlns="http://www.w3.org/2000/svg" width="29.91" height="36.417" viewBox="0 0 29.91 36.417">
  <g id="Group_6039" data-name="Group 6039" transform="translate(269.379 -155.067)">
    <g id="Group_5941" data-name="Group 5941" transform="translate(-269.379 159.483)">
      <path id="Path_5497" data-name="Path 5497" d="M-211.188,168.3a8.878,8.878,0,0,0,8.88,8.822,8.878,8.878,0,0,0,8.88-8.822,8.878,8.878,0,0,0-8.88-8.822,8.878,8.878,0,0,0-8.88,8.822Zm15.482,0a6.6,6.6,0,0,1-6.6,6.545,6.6,6.6,0,0,1-6.6-6.545,6.6,6.6,0,0,1,6.6-6.545A6.6,6.6,0,0,1-195.706,168.3Z" transform="translate(217.464 -163.899)" fill="#a5a6ab"/>
      <path id="Path_5498" data-name="Path 5498" d="M-267.459,286.434h26.07a1.912,1.912,0,0,0,1.92-1.92v-6.1c0-.3-.47-7.68-14.89-8.235h-.087c-14.463.555-14.933,7.937-14.933,8.278v6.1a1.9,1.9,0,0,0,1.92,1.877Zm13.013-14.55c12.715.512,13.227,6.356,13.227,6.57v6.1a.2.2,0,0,1-.213.213l-26.027,0a.2.2,0,0,1-.213-.213V278.5c0-.087.383-6.1,13.227-6.615Z" transform="translate(269.379 -254.434)" fill="#a5a6ab"/>
    </g>
  </g>
</svg>
