<svg xmlns="http://www.w3.org/2000/svg" width="20.16" height="27.839" viewBox="0 0 20.16 27.839">
  <g id="Group_6170" data-name="Group 6170" transform="translate(-293.179 -117.355) rotate(-43)">
    <g id="Group_6176" data-name="Group 6176" transform="translate(118.276 290.172)">
      <path id="Path_5573" data-name="Path 5573" d="M264.788,320.687a.787.787,0,0,0,.774-.656c.394-2.166.189-3.564-.624-4.274a1.943,1.943,0,0,0-1.312-.436h-.035a5.7,5.7,0,0,0-.771.077,1.985,1.985,0,0,1-.84.02c-.486-.17-.456-.83-.217-2.152h0a7.422,7.422,0,0,0,.158-1.25.787.787,0,1,0-1.575,0,6.558,6.558,0,0,1-.131.969c-.22,1.226-.591,3.276,1.25,3.919h0a3.218,3.218,0,0,0,1.591.05,4.3,4.3,0,0,1,.562-.061.528.528,0,0,1,.28.047c.055.047.525.525.111,2.806a.788.788,0,0,0,.787.929Z" transform="translate(-247.623 -309.387)" fill="#ef804a"/>
      <path id="Path_5574" data-name="Path 5574" d="M292.317,295.45a3.6,3.6,0,0,0,1.068-.073,2.615,2.615,0,0,1,.565-.074c.444.024.525.952.543,1.5a22.016,22.016,0,0,1-.166,4.008.788.788,0,0,0,.643.909.737.737,0,0,0,.134,0,.788.788,0,0,0,.787-.656,23.256,23.256,0,0,0,.187-4.3c-.069-2.544-1.3-2.99-2.048-3.042a3.973,3.973,0,0,0-.922.084,2.35,2.35,0,0,1-.616.057.785.785,0,0,1-.488-.184c-.187-.262-.045-1,.057-1.543a6.588,6.588,0,0,0,.155-1.184.787.787,0,1,0-1.575,0,5.708,5.708,0,0,1-.126.893,3.525,3.525,0,0,0,.22,2.772,2.161,2.161,0,0,0,1.58.827Z" transform="translate(-275.287 -290.172)" fill="#ef804a"/>
      <path id="Path_5575" data-name="Path 5575" d="M118.276,438.109v4.2a.788.788,0,0,0,.787.788h14.306v-5.775H119.063A.788.788,0,0,0,118.276,438.109Z" transform="translate(-118.276 -424.447)" fill="#ef804a"/>
      <path id="Path_5576" data-name="Path 5576" d="M313.5,437.322h-4.725V443.1H313.5a.788.788,0,0,0,.787-.788v-4.2A.788.788,0,0,0,313.5,437.322Z" transform="translate(-292.108 -424.447)" fill="#ef804a"/>
    </g>
  </g>
</svg>
