<svg xmlns="http://www.w3.org/2000/svg" width="31.132" height="30.95" viewBox="0 0 31.132 30.95">
  <g id="Group_6038" data-name="Group 6038" transform="translate(-1390.778 -335.924)">
    <path id="Path_5360" data-name="Path 5360" d="M1420.484,360.381c-4.771-1.824-10.066-1.729-10.511-3.141v-2.124c4.764-.013,6.655-1.537,6.655-1.537-1.988-1.118-2.619-8.927-2.619-8.927a7.671,7.671,0,1,0-15.33,0s-.631,7.809-2.619,8.927c0,0,1.89,1.524,6.655,1.537v2.124c-.445,1.411-5.742,1.315-10.511,3.141a1.054,1.054,0,0,0-.676.985v3.7a1.051,1.051,0,0,0,1.05,1.053h27.532a1.052,1.052,0,0,0,1.05-1.053v-3.7A1.054,1.054,0,0,0,1420.484,360.381Z" transform="translate(0)" fill="none" stroke="#000" stroke-linecap="round" stroke-linejoin="round" stroke-width="1.5"/>
  </g>
</svg>
