<svg xmlns="http://www.w3.org/2000/svg" width="38.586" height="26.713" viewBox="0 0 38.586 26.713">
  <g id="Group_5256" data-name="Group 5256" transform="translate(-1082.832 -276.295)">
    <g id="Group_5252" data-name="Group 5252" transform="translate(1082.832 277.295)">
      <g id="Group_5251" data-name="Group 5251" transform="translate(0)">
        <rect id="Rectangle_4377" data-name="Rectangle 4377" width="18.431" height="22.939" transform="translate(0 2.774)" fill="#d37d0f" opacity="0.51"/>
        <rect id="Rectangle_4378" data-name="Rectangle 4378" width="18.415" height="22.819" transform="translate(3.14)" fill="#fff"/>
        <rect id="Rectangle_4379" data-name="Rectangle 4379" width="18.415" height="22.819" transform="translate(2.943 0.27)" fill="#fff" opacity="0.6"/>
        <rect id="Rectangle_4380" data-name="Rectangle 4380" width="18.415" height="22.819" transform="translate(3.14)" fill="none" stroke="#d37d0f" stroke-width="2"/>
      </g>
      <path id="Path_5447" data-name="Path 5447" d="M180.751,253.984a.126.126,0,0,1,.01-.014Z" transform="translate(-149.814 -245.569)" fill="#d37d0f"/>
      <path id="Path_5448" data-name="Path 5448" d="M180.772,253.958l.007-.01Z" transform="translate(-149.826 -245.557)" fill="#d37d0f"/>
      <path id="Path_5449" data-name="Path 5449" d="M.038,12.81a.2.2,0,0,0,.091.065.188.188,0,0,0,.177-.033l1.9-1.485.005.007a.629.629,0,0,0,.3.215.621.621,0,0,0,.458-.026l.7-.317a1.575,1.575,0,0,0,1.993.041c1.065-.831,5.853-4.565,6.313-4.928l.133.172a.715.715,0,0,0,1.13-.876h0l-.7-.91,1.8-1.406.208.272a.593.593,0,1,0,.936-.728h0L13.435.229A.593.593,0,1,0,12.5.957l.208.272-1.8,1.4-.7-.906a.711.711,0,0,0-1-.128L9.2,1.6a.72.72,0,0,0-.124,1l.135.176L2.976,7.649l-.016.013.006-.005L2.9,7.7v0a1.591,1.591,0,0,0-.447,1.95l-.484.607a.637.637,0,0,0-.005.788l.005.007-1.9,1.485a.193.193,0,0,0-.034.268Zm2.777-1.6a.252.252,0,0,1-.3-.076l-.243-.313a.257.257,0,0,1,0-.319l.387-.486.723.934ZM9.787,7.58l-.335-.431,1.965-1.533.332.431Zm-.566-.73h0l-1.165-1.5v0l1.964-1.533,1.164,1.506ZM12.8.72a.213.213,0,0,1,.037-.3h0a.209.209,0,0,1,.293.032l0,0L15.184,3.1a.213.213,0,0,1-.037.3h0a.208.208,0,0,1-.293-.032l0,0C14.341,2.71,12.7.584,12.8.72Zm.141.8L14.107,3.03l-1.8,1.405L11.144,2.93ZM9.44,1.9a.331.331,0,0,1,.465.055v0c1.24,1.6.4.513,3.038,3.922a.338.338,0,0,1-.06.468.33.33,0,0,1-.464-.054l0,0c-.979-1.263-2.977-3.845-3.036-3.922A.335.335,0,0,1,9.44,1.9Zm.008,1.179.334.431L7.818,5.04l-.335-.429ZM7.192,4.855,9.484,7.814l-.448.35L6.744,5.208ZM2.982,7.644a0,0,0,0,1,0,0l0,0Zm.157.361,3.3-2.575,2.3,2.97-3.3,2.578a1.192,1.192,0,0,1-1.674-.2l-.007-.009L2.924,9.7a1.211,1.211,0,0,1,.214-1.689Z" transform="matrix(-0.616, 0.788, -0.788, -0.616, 22.706, 9.853)" fill="#d37d0f"/>
      <path id="Path_5450" data-name="Path 5450" d="M180.722,254.02l.013-.02Z" transform="translate(-149.798 -245.586)" fill="#d37d0f"/>
      <path id="Path_5451" data-name="Path 5451" d="M180.72,254.046Z" transform="translate(-149.797 -245.611)" fill="#d37d0f"/>
      <path id="Path_5452" data-name="Path 5452" d="M180.7,254.06l.008-.012C180.7,254.063,180.693,254.07,180.7,254.06Z" transform="translate(-149.784 -245.612)" fill="#d37d0f"/>
    </g>
    <g id="Group_5237" data-name="Group 5237" transform="translate(1100.326 279.096)">
      <path id="Path_5478" data-name="Path 5478" d="M281.193,548.235v.576a2.916,2.916,0,0,1-1.037-1.082,3.772,3.772,0,0,1-.393-1.825,2.279,2.279,0,0,0-1.631-2.234,2.4,2.4,0,0,0-.716-.109,2.267,2.267,0,0,0-1.893,1.016,5.364,5.364,0,0,0-.8,4.194h-4.852a2.41,2.41,0,0,0-1.4,4.375,55055.666,55055.666,0,0,1,1.842,5.262,2.431,2.431,0,0,0-.094.66,2.412,2.412,0,0,0,2.408,2.417h3.906a6.769,6.769,0,0,0,2.373-.428l2.278-.846v.546h6.318V548.235Z" transform="translate(-266.419 -542.239)" fill="#d38002" opacity="0.51"/>
      <g id="Group_5236" data-name="Group 5236">
        <path id="Path_5479" data-name="Path 5479" d="M273.338,583.125" transform="translate(-269.83 -565.217)" fill="none" stroke="#d38002" stroke-width="2"/>
        <path id="Path_5480" data-name="Path 5480" d="M270.773,575.8" transform="translate(-268.34 -560.962)" fill="none" stroke="#d38002" stroke-width="2"/>
        <g id="Group_5234" data-name="Group 5234">
          <path id="Path_5481" data-name="Path 5481" d="M278.893,555.961l-3.04,1.129a6.368,6.368,0,0,1-2.23.4h-3.9a35.542,35.542,0,0,1-3.643-8.1,1.991,1.991,0,0,1,.882-3.776h5.388a5.1,5.1,0,0,1,.607-4.378,1.856,1.856,0,0,1,1.547-.832,1.982,1.982,0,0,1,.59.09,1.866,1.866,0,0,1,1.337,1.829,4.183,4.183,0,0,0,.443,2.026,3.559,3.559,0,0,0,1.826,1.58" transform="translate(-264.969 -540.407)" fill="#fff"/>
          <rect id="Rectangle_4367" data-name="Rectangle 4367" width="5.479" height="11.683" transform="translate(13.728 4.674)" fill="#fff"/>
        </g>
        <path id="Path_5482" data-name="Path 5482" d="M277.184,564.193a6.38,6.38,0,0,1-2.23.4h-3.9a35.536,35.536,0,0,1-3.643-8.1,1.985,1.985,0,0,1-1.1-1.78,1.959,1.959,0,0,0-.2.32,788.74,788.74,0,0,0,2.744,7.929,1.993,1.993,0,0,0,1.8,2.837h3.9a6.368,6.368,0,0,0,2.23-.4l3.04-1.129-.02-1.05Z" transform="translate(-265.508 -548.718)" fill="#d38002" opacity="0.29"/>
        <g id="Group_5235" data-name="Group 5235" transform="translate(0.053)">
          <path id="Path_5483" data-name="Path 5483" d="M279.02,555.961l-3.04,1.129a6.367,6.367,0,0,1-2.23.4h-3.9a35.547,35.547,0,0,1-3.643-8.1,1.991,1.991,0,0,1,.882-3.776h5.388a5.1,5.1,0,0,1,.607-4.378,1.856,1.856,0,0,1,1.547-.832,1.982,1.982,0,0,1,.59.09,1.866,1.866,0,0,1,1.337,1.829,4.182,4.182,0,0,0,.443,2.026,3.559,3.559,0,0,0,1.826,1.58" transform="translate(-265.096 -540.407)" fill="none" stroke="#d38002" stroke-width="2"/>
          <rect id="Rectangle_4368" data-name="Rectangle 4368" width="5.479" height="11.683" transform="translate(13.728 4.674)" fill="none" stroke="#d38002" stroke-width="2"/>
        </g>
        <rect id="Rectangle_4369" data-name="Rectangle 4369" width="5.479" height="4.243" transform="translate(13.781 12.113)" fill="#d38002" opacity="0.29"/>
      </g>
    </g>
  </g>
</svg>
