<svg xmlns="http://www.w3.org/2000/svg" width="41.749" height="32.77" viewBox="0 0 41.749 32.77">
  <g id="Group_5250" data-name="Group 5250" transform="translate(0.749 1)">
    <rect id="Rectangle_4373" data-name="Rectangle 4373" width="37.521" height="29.147" transform="translate(3.479 2.622)" fill="#d37d0f" opacity="0.51"/>
    <rect id="Rectangle_4374" data-name="Rectangle 4374" width="37.5" height="28.995" transform="translate(0.251 0)" fill="#fff"/>
    <rect id="Rectangle_4375" data-name="Rectangle 4375" width="37.5" height="28.995" transform="translate(0 0.343)" fill="#fff" opacity="0.6"/>
    <rect id="Rectangle_4376" data-name="Rectangle 4376" width="37.5" height="28.995" transform="translate(0.251 0)" fill="none" stroke="#d37d0f" stroke-width="2"/>
    <g id="Group_5195" data-name="Group 5195" transform="translate(9.924 4.838)">
      <g id="Group_5194" data-name="Group 5194">
        <path id="Path_5431" data-name="Path 5431" d="M129.856,243.582h-2.473v-.792a.522.522,0,1,0-1.043,0h0v2.725a1.016,1.016,0,0,0-.521.889,1.043,1.043,0,1,0,1.565-.889v-.889h2.473a.385.385,0,0,1,.384.384v3.154H113.953V245.01a.385.385,0,0,1,.385-.384h1.584v-1.044H114.34A1.426,1.426,0,0,0,112.91,245v14.153a1.426,1.426,0,0,0,1.422,1.43h15.524a1.423,1.423,0,0,0,1.411-1.43V245.013a1.423,1.423,0,0,0-1.411-1.431Zm.368,15.575a.385.385,0,0,1-.384.384h-15.5a.385.385,0,0,1-.385-.384v-9.972h16.29v9.972Z" transform="translate(-112.91 -242.268)" fill="#d37d0f"/>
        <path id="Path_5432" data-name="Path 5432" d="M118.722,260.019H121.1a.347.347,0,0,0,.348-.346v-1.527a.347.347,0,0,0-.346-.348h-2.378a.347.347,0,0,0-.348.346v1.527a.348.348,0,0,0,.346.348Z" transform="translate(-115.205 -248.792)" fill="#d37d0f"/>
        <path id="Path_5433" data-name="Path 5433" d="M126.421,260.019H128.8a.347.347,0,0,0,.349-.346v-1.528a.347.347,0,0,0-.346-.348h-2.377a.347.347,0,0,0-.348.346v1.527a.347.347,0,0,0,.346.348h0Z" transform="translate(-118.441 -248.792)" fill="#d37d0f"/>
        <path id="Path_5434" data-name="Path 5434" d="M134.15,260.019h2.376a.348.348,0,0,0,.348-.346v-1.527a.347.347,0,0,0-.346-.348H134.15a.347.347,0,0,0-.348.346v1.527a.348.348,0,0,0,.346.348Z" transform="translate(-121.687 -248.792)" fill="#d37d0f"/>
        <path id="Path_5435" data-name="Path 5435" d="M118.722,266.849H121.1a.347.347,0,0,0,.348-.346v-1.528a.347.347,0,0,0-.346-.347h-2.378a.347.347,0,0,0-.348.346h0V266.5a.347.347,0,0,0,.346.347Z" transform="translate(-115.205 -251.662)" fill="#d37d0f"/>
        <path id="Path_5436" data-name="Path 5436" d="M126.42,266.849H128.8a.346.346,0,0,0,.349-.345v-1.529a.347.347,0,0,0-.346-.347H126.42a.347.347,0,0,0-.348.346h0V266.5a.347.347,0,0,0,.346.347Z" transform="translate(-118.439 -251.662)" fill="#d37d0f"/>
        <path id="Path_5437" data-name="Path 5437" d="M134.15,266.849h2.376a.347.347,0,0,0,.348-.346v-1.528a.347.347,0,0,0-.346-.347H134.15a.347.347,0,0,0-.348.346h0V266.5a.347.347,0,0,0,.346.347Z" transform="translate(-121.687 -251.662)" fill="#d37d0f"/>
        <path id="Path_5438" data-name="Path 5438" d="M119.757,247.427a1.034,1.034,0,0,0,.522-1.932V244.6h2.879v-1.023h-2.879v-.792a.522.522,0,1,0-1.043,0h0v2.725a1.016,1.016,0,0,0-.521.889A1.034,1.034,0,0,0,119.757,247.427Z" transform="translate(-115.348 -242.268)" fill="#d37d0f"/>
        <path id="Path_5439" data-name="Path 5439" d="M127.982,247.427a1.034,1.034,0,0,0,.521-1.932V244.6h2.861v-1.023H128.5v-.792a.521.521,0,1,0-1.043,0h0v2.725a1.016,1.016,0,0,0-.521.889A1.034,1.034,0,0,0,127.982,247.427Z" transform="translate(-118.804 -242.268)" fill="#d37d0f"/>
      </g>
    </g>
  </g>
</svg>
