<svg xmlns="http://www.w3.org/2000/svg" width="32.257" height="30.809" viewBox="0 0 32.257 30.809">
  <g id="Group_6014" data-name="Group 6014" transform="translate(-469 -443.828)">
    <path id="Path_5515" data-name="Path 5515" d="M495.773,455.493c.036.247.058.494.082.741a25.33,25.33,0,0,1-.129,5.418c-.141,1.01-.341,2.021-.424,3.031a14.741,14.741,0,0,0,.259,4.653,4.906,4.906,0,0,0,.987,2.162c.293.329.658.6.976.905s.646.646.951.987a.959.959,0,0,1,.189.375c.106.341-.024.528-.4.518-.905-.024-1.81-.046-2.784-.082-.189-.247-.436-.528-.634-.835a23.357,23.357,0,0,1-1.81-3.478c-.363-.857-.717-1.716-1.082-2.573-.036-.082-.07-.165-.118-.271-.411.07-.823.141-1.257.211a6.691,6.691,0,0,1-1.022,4.372c.2.024.363.046.54.058a7.278,7.278,0,0,1,2.056.47,3.224,3.224,0,0,1,.622.341,1.244,1.244,0,0,1,.317,1.845,1.732,1.732,0,0,1-.259.024c-2.82,0-5.641.012-8.46,0a11.891,11.891,0,0,1-1.293-.082,2.073,2.073,0,0,1-1.092-.494c-.54-.435-1.07-.893-1.6-1.339a4.958,4.958,0,0,1-3.454,1.9,14.662,14.662,0,0,1-3.995.247,4.453,4.453,0,0,1-2.28-.775,3.694,3.694,0,0,1-1.375-1.915,7.537,7.537,0,0,1-.141-3.583c.012-.046.036-.094.07-.189.211.153.412.305.6.446a9.8,9.8,0,0,0,5.781,1.963,8.149,8.149,0,0,0,2.7-.446c.07-.024.141-.07.2-.094-.106-.458-.211-.905-.293-1.351a8.11,8.11,0,0,1,.845-5.369,12.089,12.089,0,0,1,3.079-3.643,20.1,20.1,0,0,1,5.03-3.031c.082-.036.165-.082.281-.128a7.733,7.733,0,0,1,.317-2.9c.07-.271.165-.528.247-.8,1.385,1.608,3.936,2.489,7.766,2.712Zm5.064-4.007a2.347,2.347,0,0,0-.622.729,2.377,2.377,0,0,1-1.656,1.152,7.049,7.049,0,0,1-2.89-.012,1.374,1.374,0,0,1-.189-.058c-.046-.024-.07-.07-.153-.153a9.71,9.71,0,0,1,.235,1l.036.177c-3.808-.247-6.134-1.174-7.039-2.82.305-.7.646-1.4,1.01-2.068.259-.482.552-.951.823-1.433a.823.823,0,0,0,.141-.4,4.11,4.11,0,0,1,1.21-2.7c.329-.363.717-.682,1.14-1.07a7.523,7.523,0,0,1,.528,2.409c.7-.506,1.4-1,2.068-1.481a.693.693,0,0,1,.329.682c-.012.47-.058.939-.094,1.433.141.082.305.153.458.259a2.788,2.788,0,0,1,1.046,1.2.968.968,0,0,0,.528.482c1.046.458,2.08.939,3.113,1.409.118.058.235.106.364.165a1.019,1.019,0,0,1-.384,1.1Zm-5.558,1.469v.012h0c.012,0,.012,0,0-.012C495.291,453,495.291,452.978,495.279,452.955Z" transform="translate(0)"/>
  </g>
</svg>
