<svg xmlns="http://www.w3.org/2000/svg" width="40.83" height="32.643" viewBox="0 0 40.83 32.643">
  <g id="Group_5249" data-name="Group 5249" transform="translate(-898.847 -1165.035)">
    <g id="Group_5232" data-name="Group 5232" transform="translate(899.259 1174.717)">
      <g id="Group_2" data-name="Group 2" transform="translate(0 0.501)" opacity="0.51">
        <rect id="Rectangle_1" data-name="Rectangle 1" width="34.944" height="16.315" fill="#e17400"/>
        <g id="Group_1" data-name="Group 1">
          <rect id="Rectangle_2" data-name="Rectangle 2" width="34.944" height="16.315" fill="#e17400"/>
        </g>
      </g>
      <rect id="Rectangle_3" data-name="Rectangle 3" width="34.944" height="16.315" transform="translate(1.055 0)" fill="#fff"/>
      <g id="Group_3" data-name="Group 3" transform="translate(1.055 0)">
        <rect id="Rectangle_4" data-name="Rectangle 4" width="34.944" height="16.315" fill="none" stroke="#e17400" stroke-width="1.667"/>
      </g>
      <path id="Path_5475" data-name="Path 5475" d="M585.8,429.766a1.25,1.25,0,0,0-.885-1.21,3.167,3.167,0,0,1-2.149-2.143,1.262,1.262,0,0,0-1.218-.89H575.6a.424.424,0,0,0-.3.729,8.041,8.041,0,0,1,0,10.8.425.425,0,0,0,.3.729h5.938a1.267,1.267,0,0,0,1.221-.89,3.163,3.163,0,0,1,2.146-2.141,1.257,1.257,0,0,0,.888-1.214c0-1.071,0-2.7,0-3.767Z" transform="translate(-551.729 -423.465)" fill="#f6d5b2" stroke="#e17400" stroke-width="1"/>
      <path id="Path_5476" data-name="Path 5476" d="M518.089,430.045a1.249,1.249,0,0,1,.885-1.209,3.167,3.167,0,0,0,2.149-2.143,1.263,1.263,0,0,1,1.218-.89h5.943a.425.425,0,0,1,.3.729,8.041,8.041,0,0,0,0,10.8.425.425,0,0,1-.3.729h-5.938a1.267,1.267,0,0,1-1.221-.89,3.163,3.163,0,0,0-2.146-2.141,1.257,1.257,0,0,1-.888-1.214c0-1.071,0-2.7,0-3.767Z" transform="translate(-515.023 -423.644)" fill="#f6d5b2" stroke="#e17400" stroke-width="1"/>
      <path id="Path_5477" data-name="Path 5477" d="M558.821,433.513c-1.234-.329-1.581-.531-1.581-.887,0-.434.492-.54.984-.54a2.272,2.272,0,0,1,1.4.434,1.013,1.013,0,0,0,.568.193.731.731,0,0,0,.7-.752,1.067,1.067,0,0,0-.425-.724,2.716,2.716,0,0,0-1.455-.568v-.338a.752.752,0,1,0-1.5,0v.377a2,2,0,0,0-1.813,1.956c0,1.349,1.022,1.754,2.043,2.025,1.234.328,1.582.531,1.582.887,0,.434-.492.54-.984.54a2.271,2.271,0,0,1-1.4-.434,1.016,1.016,0,0,0-.57-.193.731.731,0,0,0-.7.752,1.066,1.066,0,0,0,.425.724,2.715,2.715,0,0,0,1.455.568v.338a.752.752,0,1,0,1.5,0v-.377a2,2,0,0,0,1.813-1.956C560.865,434.188,559.842,433.784,558.821,433.513Z" transform="translate(-539.186 -426.073)" fill="#e17400"/>
    </g>
    <g id="Group_5233" data-name="Group 5233" transform="matrix(0.891, 0.454, -0.454, 0.891, 906.481, 1165.677)">
      <g id="Group_2-2" data-name="Group 2" transform="translate(0 0.501)" opacity="0.51">
        <rect id="Rectangle_1-2" data-name="Rectangle 1" width="34.944" height="16.315" fill="#e17400"/>
        <g id="Group_1-2" data-name="Group 1">
          <rect id="Rectangle_2-2" data-name="Rectangle 2" width="34.944" height="16.315" fill="#e17400"/>
        </g>
      </g>
      <rect id="Rectangle_3-2" data-name="Rectangle 3" width="34.944" height="16.315" transform="translate(1.055 0)" fill="#fff"/>
      <g id="Group_3-2" data-name="Group 3" transform="translate(1.055 0)">
        <rect id="Rectangle_4-2" data-name="Rectangle 4" width="34.944" height="16.315" fill="none" stroke="#e17400" stroke-width="1.667"/>
      </g>
      <path id="Path_5475-2" data-name="Path 5475" d="M10.623,4.242a1.25,1.25,0,0,0-.885-1.209A3.167,3.167,0,0,1,7.588.89,1.262,1.262,0,0,0,6.371,0H.428a.424.424,0,0,0-.3.729,7.554,7.554,0,0,1,2.081,5.4,7.549,7.549,0,0,1-2.081,5.4.425.425,0,0,0,.3.729H6.367a1.267,1.267,0,0,0,1.221-.89A3.163,3.163,0,0,1,9.734,9.223a1.257,1.257,0,0,0,.888-1.214c0-1.071,0-2.7,0-3.767Z" transform="translate(23.443 2.059)" fill="#f6d5b2" stroke="#e17400" stroke-width="1"/>
      <path id="Path_5476-2" data-name="Path 5476" d="M0,4.242A1.249,1.249,0,0,1,.886,3.033,3.167,3.167,0,0,0,3.035.89,1.263,1.263,0,0,1,4.253,0H10.2a.425.425,0,0,1,.3.729,7.552,7.552,0,0,0-2.081,5.4,7.55,7.55,0,0,0,2.081,5.4.425.425,0,0,1-.3.729H4.257a1.267,1.267,0,0,1-1.221-.89A3.163,3.163,0,0,0,.89,9.223,1.258,1.258,0,0,1,0,8.008c0-1.071,0-2.7,0-3.767Z" transform="translate(3.064 2.159)" fill="#f6d5b2" stroke="#e17400" stroke-width="1"/>
      <path id="Path_5477-2" data-name="Path 5477" d="M3.155,3.933C1.921,3.6,1.574,3.4,1.574,3.045c0-.434.492-.54.983-.54a2.272,2.272,0,0,1,1.4.434,1.013,1.013,0,0,0,.568.193.731.731,0,0,0,.7-.752A1.067,1.067,0,0,0,4.8,1.658,2.716,2.716,0,0,0,3.346,1.09V.752A.724.724,0,0,0,2.595,0a.723.723,0,0,0-.751.752v.377A2,2,0,0,0,.03,3.085c0,1.349,1.022,1.754,2.043,2.025,1.234.328,1.581.531,1.581.887,0,.434-.492.54-.984.54a2.271,2.271,0,0,1-1.4-.434A1.017,1.017,0,0,0,.7,5.909a.731.731,0,0,0-.7.752,1.065,1.065,0,0,0,.425.724,2.715,2.715,0,0,0,1.455.568V8.29a.724.724,0,0,0,.751.752.723.723,0,0,0,.752-.752V7.914A2,2,0,0,0,5.2,5.957C5.2,4.608,4.176,4.2,3.155,3.933Z" transform="translate(16.48 3.507)" fill="#e17400"/>
    </g>
  </g>
</svg>
