<svg xmlns="http://www.w3.org/2000/svg" width="23.238" height="37.176" viewBox="0 0 23.238 37.176">
  <g id="Group_6137" data-name="Group 6137" transform="translate(-165.629 -391.989)">
    <path id="Path_5484" data-name="Path 5484" d="M188.991,408.573a22.13,22.13,0,0,1-.64,5.326,34.392,34.392,0,0,0-20.755,0,22.129,22.129,0,0,1-.64-5.326c0-11.237,4.929-15.834,11.015-15.834S188.991,397.336,188.991,408.573Z" transform="translate(-0.725 -0.436)" fill="#e17400"/>
    <path id="Path_5485" data-name="Path 5485" d="M188.937,463.059V461.3c0-5.753-5.05-10.417-11.278-10.417h0c-6.229,0-11.278,4.664-11.278,10.417v1.756Z" transform="translate(-0.41 -34.208)" fill="#f9e8d3"/>
    <path id="Rectangle_4372" data-name="Rectangle 4372" d="M0,0H5.927a0,0,0,0,1,0,0V4.155A2.963,2.963,0,0,1,2.963,7.119h0A2.963,2.963,0,0,1,0,4.155V0A0,0,0,0,1,0,0Z" transform="translate(174.284 414.168)" fill="#fff"/>
    <path id="Path_5486" data-name="Path 5486" d="M189.354,419.215a1.124,1.124,0,0,1-1.166,1.077h-.077v1.459c0,4.062-3.562,7.353-7.956,7.353s-7.961-3.291-7.961-7.353v-1.459h-.082a1.081,1.081,0,1,1,0-2.155h.082v-3.819a23.186,23.186,0,0,0,15.916,0v3.819h.077A1.124,1.124,0,0,1,189.354,419.215Z" transform="translate(-2.904 -12.969)" fill="#fff"/>
    <line id="Line_1942" data-name="Line 1942" y1="3.525" transform="translate(170.872 425.325)" fill="#fff"/>
    <path id="Path_5487" data-name="Path 5487" d="M180.551,416.821V415.81a8.209,8.209,0,0,0,3.728-2.973,19.237,19.237,0,0,1,3.212.915l.375.149.092-.368a22.389,22.389,0,0,0,.648-5.4c0-14.575-7.945-16.148-11.36-16.148s-11.355,1.574-11.355,16.148a22.389,22.389,0,0,0,.648,5.4l.092.368.375-.149a19.263,19.263,0,0,1,3.212-.916,8.216,8.216,0,0,0,3.725,2.971v1.009a10.9,10.9,0,0,0-8.315,10.278v2.07h23.238V427.1A10.892,10.892,0,0,0,180.551,416.821Zm-13.435-3.791a21.879,21.879,0,0,1-.545-4.893c0-9.863,3.891-15.52,10.674-15.52s10.679,5.657,10.679,15.52a21.879,21.879,0,0,1-.545,4.893,20.2,20.2,0,0,0-2.751-.761,7.15,7.15,0,0,0,.917-3.488v-1.166a1.377,1.377,0,0,0,0-2.741v-4.032l-.492.225a22.84,22.84,0,0,1-15.614,0l-.492-.225v4.032a1.377,1.377,0,0,0,0,2.742v1.165a7.147,7.147,0,0,0,.917,3.486A20.5,20.5,0,0,0,167.116,413.03Zm2.514-4.248v-1.773h-.423a.765.765,0,1,1,0-1.526h.423v-3.642a24.179,24.179,0,0,0,15.236,0v3.642h.418a.765.765,0,1,1,0,1.526h-.418v1.773c0,3.881-3.416,7.038-7.615,7.038S169.631,412.663,169.631,408.782Zm10.24,7.273v3.014a1.989,1.989,0,0,1-2.061,1.9h-1.125a1.989,1.989,0,0,1-2.061-1.9v-3.016a8.913,8.913,0,0,0,5.246,0Zm8.316,12.482h-4.221v-3.211h-.681v3.211H171.212v-3.211h-.681v3.211H166.31V427.1a10.237,10.237,0,0,1,7.634-9.62v1.595a2.646,2.646,0,0,0,2.741,2.532h1.125a2.646,2.646,0,0,0,2.741-2.532v-1.588a10.231,10.231,0,0,1,7.635,9.613Z" transform="translate(0 0)" fill="#e68604"/>
    <ellipse id="Ellipse_615" data-name="Ellipse 615" cx="0.995" cy="0.919" rx="0.995" ry="0.919" transform="translate(173.987 405.042)" fill="#e68604"/>
    <ellipse id="Ellipse_616" data-name="Ellipse 616" cx="0.995" cy="0.919" rx="0.995" ry="0.919" transform="translate(178.753 405.042)" fill="#e68604"/>
    <path id="Path_5488" data-name="Path 5488" d="M191.15,435.911a3.672,3.672,0,0,1-5.73.1" transform="translate(-10.809 -25.51)" fill="none" stroke="#e68604" stroke-linecap="round" stroke-linejoin="round" stroke-width="1"/>
  </g>
</svg>
