<svg id="Group_5942" data-name="Group 5942" xmlns="http://www.w3.org/2000/svg" width="69.059" height="79.775" viewBox="0 0 69.059 79.775">
  <g id="Group_5156" data-name="Group 5156">
    <path id="Path_5390" data-name="Path 5390" d="M1002.173,877.238h-2.379V836.755h1.191a1.192,1.192,0,0,0,1.191-1.191V830.8a1.19,1.19,0,0,0-1.191-1.191h-.266l-7.476-20.647a1.188,1.188,0,0,0-1.12-.786l-30.43,0V806.99h1.192a1.19,1.19,0,0,0,1.191-1.191v-4.762a1.19,1.19,0,0,0-1.191-1.191H948.6a1.19,1.19,0,0,0-1.191,1.191V805.8a1.19,1.19,0,0,0,1.191,1.191h1.192v1.191h-4.233a1.2,1.2,0,0,0-1.12.786l-7.475,20.647h-.266a1.19,1.19,0,0,0-1.191,1.191v4.762a1.19,1.19,0,0,0,1.191,1.191h1.191v40.483l-2.386,0a1.191,1.191,0,0,0,0,2.383h27.386l5.953,0h33.338a1.19,1.19,0,1,0,0-2.379Zm-52.385-75.01h11.906v2.379H949.787Zm9.524,4.762V818.9H952.17V806.99Zm-12.922,3.571h3.4v9.523a1.19,1.19,0,0,0,1.191,1.191H960.5a1.19,1.19,0,0,0,1.191-1.191v-9.523h29.593l6.9,19.05H939.491Zm21.257,66.677h-3.574l0-16.671h3.573Zm5.953,0h-3.571V860.567H973.6Zm23.812,0H975.981V859.376a1.192,1.192,0,0,0-1.191-1.191l-5.953,0h-5.953a1.19,1.19,0,0,0-1.191,1.191v17.858H940.263V836.755h57.15Zm-58.338-42.865h-1.191V831.99h61.912v2.383Z" transform="translate(-934.308 -799.846)" fill="#fff"/>
    <path id="Path_5391" data-name="Path 5391" d="M969.894,966.5H981.8a1.19,1.19,0,0,0,1.191-1.191v-9.523a1.19,1.19,0,0,0-1.191-1.191H969.894a1.19,1.19,0,0,0-1.191,1.191v9.523A1.19,1.19,0,0,0,969.894,966.5Zm7.144-9.524h3.571v2.379h-3.571Zm0,4.762h3.571v2.379l-3.571,0Zm-5.953-4.762h3.57v2.379h-3.57Zm0,4.762h3.57v2.379h-3.57Z" transform="translate(-959.176 -911.731)" fill="#fff"/>
    <path id="Path_5392" data-name="Path 5392" d="M1034.37,966.5h11.906a1.19,1.19,0,0,0,1.191-1.191v-9.523a1.19,1.19,0,0,0-1.191-1.191H1034.37a1.19,1.19,0,0,0-1.191,1.191v9.523A1.19,1.19,0,0,0,1034.37,966.5Zm7.144-9.524h3.57v2.379h-3.57Zm0,4.762h3.57v2.379h-3.57Zm-5.953-4.762h3.574v2.379h-3.574Zm0,4.762h3.574v2.379h-3.574Z" transform="translate(-1005.793 -911.731)" fill="#fff"/>
    <path id="Path_5393" data-name="Path 5393" d="M1098.846,966.5h11.906a1.19,1.19,0,0,0,1.191-1.191v-9.523a1.19,1.19,0,0,0-1.191-1.191h-11.906a1.19,1.19,0,0,0-1.191,1.191v9.523A1.19,1.19,0,0,0,1098.846,966.5Zm7.144-9.524h3.57v2.379h-3.57Zm0,4.762h3.57v2.379h-3.57Zm-5.953-4.762h3.574v2.379h-3.574Zm0,4.762h3.574v2.379h-3.574Z" transform="translate(-1052.411 -911.731)" fill="#fff"/>
    <path id="Path_5394" data-name="Path 5394" d="M969.894,1022.386H981.8a1.19,1.19,0,0,0,1.191-1.191v-9.524a1.192,1.192,0,0,0-1.191-1.191H969.894a1.19,1.19,0,0,0-1.191,1.191v9.524A1.192,1.192,0,0,0,969.894,1022.386Zm7.144-9.527h3.571v2.379h-3.571Zm0,4.765h3.571V1020h-3.571Zm-5.953-4.765h3.57v2.379h-3.57Zm0,4.765h3.57V1020h-3.57Z" transform="translate(-959.176 -952.138)" fill="#fff"/>
    <path id="Path_5395" data-name="Path 5395" d="M1098.846,1022.386h11.906a1.19,1.19,0,0,0,1.191-1.191v-9.524a1.191,1.191,0,0,0-1.191-1.191h-11.906a1.19,1.19,0,0,0-1.191,1.191v9.524A1.192,1.192,0,0,0,1098.846,1022.386Zm7.144-9.527h3.57v2.379h-3.57Zm0,4.765h3.57V1020h-3.57Zm-5.953-4.765h3.574v2.379h-3.574Zm0,4.765h3.574V1020h-3.574Z" transform="translate(-1052.411 -952.138)" fill="#fff"/>
  </g>
</svg>
