<svg xmlns="http://www.w3.org/2000/svg" width="17.635" height="21.724" viewBox="0 0 17.635 21.724">
  <g id="Group_6079" data-name="Group 6079" transform="translate(-482 -429.828)">
    <path id="Path_5531" data-name="Path 5531" d="M496.33,432h-1.741l-.544-1.568a.913.913,0,0,0-.864-.609h-4.736a.912.912,0,0,0-.863.609L487.043,432H485.3a3.3,3.3,0,0,0-3.3,3.3v10.726a3.3,3.3,0,0,0,2.851,3.277h0l-.621.753a.909.909,0,1,0,1.4,1.156l1.545-1.873h7.266l1.545,1.873a.909.909,0,0,0,1.4-1.156l-.621-.752h.007a3.3,3.3,0,0,0,2.851-3.277l0-10.726a3.3,3.3,0,0,0-3.3-3.3Zm-9.686,14.709a1.136,1.136,0,1,1,1.132-1.132A1.134,1.134,0,0,1,486.644,446.714Zm8.355,0a1.136,1.136,0,1,1,1.132-1.132A1.126,1.126,0,0,1,495,446.714Zm1.91-5.657a1.072,1.072,0,0,1-1.077,1.068H485.8a1.072,1.072,0,0,1-1.077-1.068v-5.25a1.073,1.073,0,0,1,1.077-1.077h10.03a1.073,1.073,0,0,1,1.077,1.077Z" transform="translate(0 0)" fill="#fff"/>
  </g>
</svg>
