<svg xmlns="http://www.w3.org/2000/svg" width="54.231" height="42.902" viewBox="0 0 54.231 42.902">
  <g id="Group_6139" data-name="Group 6139" transform="translate(-898.847 -1165.196)">
    <g id="Group_5232" data-name="Group 5232" transform="translate(899.398 1177.768)">
      <g id="Group_2" data-name="Group 2" transform="translate(0 0.67)" opacity="0.51">
        <rect id="Rectangle_1" data-name="Rectangle 1" width="46.736" height="21.821" fill="#e17400"/>
        <g id="Group_1" data-name="Group 1">
          <rect id="Rectangle_2" data-name="Rectangle 2" width="46.736" height="21.821" fill="#e17400"/>
        </g>
      </g>
      <rect id="Rectangle_3" data-name="Rectangle 3" width="46.736" height="21.821" transform="translate(1.411 0)" fill="#fff"/>
      <g id="Group_3" data-name="Group 3" transform="translate(1.411 0)">
        <rect id="Rectangle_4" data-name="Rectangle 4" width="46.736" height="21.821" fill="none" stroke="#e17400" stroke-width="1.667"/>
      </g>
      <path id="Path_5475" data-name="Path 5475" d="M589.38,431.2a1.672,1.672,0,0,0-1.184-1.618,4.236,4.236,0,0,1-2.875-2.866,1.688,1.688,0,0,0-1.629-1.19h-7.949a.568.568,0,0,0-.4.975,10.755,10.755,0,0,1,0,14.438.569.569,0,0,0,.4.975h7.942a1.694,1.694,0,0,0,1.633-1.19,4.23,4.23,0,0,1,2.87-2.863,1.681,1.681,0,0,0,1.188-1.624c0-1.432,0-3.606,0-5.038Z" transform="translate(-543.818 -422.77)" fill="#f6d5b2" stroke="#e17400" stroke-width="1"/>
      <path id="Path_5476" data-name="Path 5476" d="M518.089,431.476a1.671,1.671,0,0,1,1.183-1.617,4.236,4.236,0,0,0,2.875-2.866,1.689,1.689,0,0,1,1.629-1.19h7.949a.568.568,0,0,1,.4.975,10.754,10.754,0,0,0,0,14.438.569.569,0,0,1-.4.975H523.78a1.694,1.694,0,0,1-1.633-1.19,4.23,4.23,0,0,0-2.87-2.863,1.682,1.682,0,0,1-1.188-1.624c0-1.432,0-3.606,0-5.038Z" transform="translate(-513.989 -422.915)" fill="#f6d5b2" stroke="#e17400" stroke-width="1"/>
      <path id="Path_5477" data-name="Path 5477" d="M559.886,434.84c-1.651-.44-2.115-.71-2.115-1.187,0-.581.658-.722,1.315-.722a3.039,3.039,0,0,1,1.869.581,1.355,1.355,0,0,0,.76.258.977.977,0,0,0,.941-1.006,1.427,1.427,0,0,0-.568-.968,3.633,3.633,0,0,0-1.946-.76v-.452a1.005,1.005,0,1,0-2.011,0v.5a2.678,2.678,0,0,0-2.425,2.617c0,1.8,1.367,2.346,2.732,2.708,1.651.439,2.115.71,2.115,1.186,0,.581-.658.722-1.316.722a3.037,3.037,0,0,1-1.869-.581,1.36,1.36,0,0,0-.762-.258.977.977,0,0,0-.941,1.006,1.425,1.425,0,0,0,.569.968,3.632,3.632,0,0,0,1.946.76v.452a1.005,1.005,0,1,0,2.011,0v-.5a2.678,2.678,0,0,0,2.425-2.616C562.619,435.744,561.251,435.2,559.886,434.84Z" transform="translate(-533.625 -424.889)" fill="#e17400"/>
    </g>
    <g id="Group_5233" data-name="Group 5233" transform="matrix(0.891, 0.454, -0.454, 0.891, 909.058, 1165.677)">
      <g id="Group_2-2" data-name="Group 2" transform="translate(0 0.67)" opacity="0.51">
        <rect id="Rectangle_1-2" data-name="Rectangle 1" width="46.736" height="21.821" fill="#e17400"/>
        <g id="Group_1-2" data-name="Group 1">
          <rect id="Rectangle_2-2" data-name="Rectangle 2" width="46.736" height="21.821" fill="#e17400"/>
        </g>
      </g>
      <rect id="Rectangle_3-2" data-name="Rectangle 3" width="46.736" height="21.821" transform="translate(1.411 0)" fill="#fff"/>
      <g id="Group_3-2" data-name="Group 3" transform="translate(1.411 0)">
        <rect id="Rectangle_4-2" data-name="Rectangle 4" width="46.736" height="21.821" fill="none" stroke="#e17400" stroke-width="1.667"/>
      </g>
      <path id="Path_5475-2" data-name="Path 5475" d="M14.208,5.673a1.672,1.672,0,0,0-1.184-1.618A4.235,4.235,0,0,1,10.149,1.19,1.688,1.688,0,0,0,8.521,0H.572a.568.568,0,0,0-.4.975A10.1,10.1,0,0,1,2.957,8.194,10.1,10.1,0,0,1,.174,15.413a.569.569,0,0,0,.4.975H8.516a1.694,1.694,0,0,0,1.633-1.19,4.23,4.23,0,0,1,2.87-2.863,1.681,1.681,0,0,0,1.188-1.624c0-1.432,0-3.606,0-5.038Z" transform="translate(31.354 2.754)" fill="#f6d5b2" stroke="#e17400" stroke-width="1"/>
      <path id="Path_5476-2" data-name="Path 5476" d="M0,5.673A1.671,1.671,0,0,1,1.185,4.056,4.236,4.236,0,0,0,4.06,1.19,1.689,1.689,0,0,1,5.688,0h7.949a.568.568,0,0,1,.4.975,10.1,10.1,0,0,0-2.783,7.219,10.1,10.1,0,0,0,2.783,7.219.569.569,0,0,1-.4.975H5.693A1.694,1.694,0,0,1,4.06,15.2a4.23,4.23,0,0,0-2.87-2.863A1.682,1.682,0,0,1,0,10.711C0,9.279,0,7.1,0,5.673Z" transform="translate(4.099 2.888)" fill="#f6d5b2" stroke="#e17400" stroke-width="1"/>
      <path id="Path_5477-2" data-name="Path 5477" d="M4.22,5.26c-1.651-.44-2.115-.71-2.115-1.187,0-.581.658-.722,1.315-.722a3.038,3.038,0,0,1,1.869.581,1.355,1.355,0,0,0,.76.258A.977.977,0,0,0,6.99,3.185a1.427,1.427,0,0,0-.568-.968,3.633,3.633,0,0,0-1.946-.76V1.006A.969.969,0,0,0,3.47,0,.967.967,0,0,0,2.465,1.006v.5A2.678,2.678,0,0,0,.04,4.126c0,1.8,1.367,2.346,2.733,2.708,1.651.439,2.115.71,2.115,1.186,0,.581-.658.722-1.316.722A3.037,3.037,0,0,1,1.7,8.162,1.36,1.36,0,0,0,.941,7.9.977.977,0,0,0,0,8.909a1.425,1.425,0,0,0,.569.968,3.631,3.631,0,0,0,1.946.76v.452A.968.968,0,0,0,3.52,12.094a.967.967,0,0,0,1.006-1.006v-.5A2.678,2.678,0,0,0,6.95,7.968C6.953,6.164,5.585,5.623,4.22,5.26Z" transform="translate(22.041 4.691)" fill="#e17400"/>
    </g>
  </g>
</svg>
