<svg id="Group_5303" data-name="Group 5303" xmlns="http://www.w3.org/2000/svg" width="33.504" height="33.504" viewBox="0 0 33.504 33.504">
  <g id="Group_5164" data-name="Group 5164" transform="translate(0 0)">
    <path id="Path_5405" data-name="Path 5405" d="M891.237,898.077h-3.263a.436.436,0,0,0-.435.435v3.263a.436.436,0,0,0,.435.435h3.263a.436.436,0,0,0,.435-.435v-3.263A.436.436,0,0,0,891.237,898.077Zm-.435,3.263h-2.393v-2.393H890.8Z" transform="translate(-881.012 -891.55)" fill="#a5a6ab"/>
    <path id="Path_5406" data-name="Path 5406" d="M928.737,898.077h-3.263a.436.436,0,0,0-.435.435v3.263a.436.436,0,0,0,.435.435h3.263a.436.436,0,0,0,.435-.435v-3.263A.436.436,0,0,0,928.737,898.077Zm-.435,3.263h-2.393v-2.393H928.3Z" transform="translate(-913.073 -891.55)" fill="#a5a6ab"/>
    <path id="Path_5407" data-name="Path 5407" d="M891.237,935.577h-3.263a.436.436,0,0,0-.435.435v3.263a.436.436,0,0,0,.435.435h3.263a.436.436,0,0,0,.435-.435v-3.263A.436.436,0,0,0,891.237,935.577Zm-.435,3.263h-2.393v-2.393H890.8Z" transform="translate(-881.012 -923.611)" fill="#a5a6ab"/>
    <path id="Path_5408" data-name="Path 5408" d="M928.737,935.577h-3.263a.436.436,0,0,0-.435.435v3.263a.436.436,0,0,0,.435.435h3.263a.436.436,0,0,0,.435-.435v-3.263A.436.436,0,0,0,928.737,935.577Zm-.435,3.263h-2.393v-2.393H928.3Z" transform="translate(-913.073 -923.611)" fill="#a5a6ab"/>
    <path id="Path_5409" data-name="Path 5409" d="M891.237,973.077h-3.263a.436.436,0,0,0-.435.435v3.263a.436.436,0,0,0,.435.435h3.263a.436.436,0,0,0,.435-.435v-3.263A.436.436,0,0,0,891.237,973.077Zm-.435,3.263h-2.393v-2.393H890.8Z" transform="translate(-881.012 -955.672)" fill="#a5a6ab"/>
    <path id="Path_5410" data-name="Path 5410" d="M928.737,973.077h-3.263a.436.436,0,0,0-.435.435v3.263a.436.436,0,0,0,.435.435h3.263a.436.436,0,0,0,.435-.435v-3.263A.436.436,0,0,0,928.737,973.077Zm-.435,3.263h-2.393v-2.393H928.3Z" transform="translate(-913.073 -955.672)" fill="#a5a6ab"/>
    <path id="Path_5411" data-name="Path 5411" d="M891.237,1010.577h-3.263a.436.436,0,0,0-.435.435v3.263a.436.436,0,0,0,.435.435h3.263a.436.436,0,0,0,.435-.435v-3.263A.436.436,0,0,0,891.237,1010.577Zm-.435,3.263h-2.393v-2.393H890.8Z" transform="translate(-881.012 -987.734)" fill="#a5a6ab"/>
    <path id="Path_5412" data-name="Path 5412" d="M928.737,1010.577h-3.263a.436.436,0,0,0-.435.435v3.263a.436.436,0,0,0,.435.435h3.263a.436.436,0,0,0,.435-.435v-3.263A.436.436,0,0,0,928.737,1010.577Zm-.435,3.263h-2.393v-2.393H928.3Z" transform="translate(-913.073 -987.734)" fill="#a5a6ab"/>
    <path id="Path_5413" data-name="Path 5413" d="M875.607,883.535h-2.828v-1.74a.436.436,0,0,0-.435-.435h-.653V858.3h1.74a.437.437,0,0,0,.37-.206.432.432,0,0,0,.019-.423l-1.088-2.176a.434.434,0,0,0-.389-.241h-4.083l-.967-1.934a.434.434,0,0,0-.389-.241H851.676a.434.434,0,0,0-.389.241l-.967,1.934h-4.083a.434.434,0,0,0-.389.241l-1.088,2.176a.434.434,0,0,0,.389.629h1.74v23.061h-.653a.436.436,0,0,0-.435.435v1.74h-2.828a.436.436,0,0,0-.435.435v2.176a.436.436,0,0,0,.435.435h32.633a.436.436,0,0,0,.435-.435V883.97a.436.436,0,0,0-.435-.435Zm-23.663-29.588h14.692l.653,1.305h-16Zm-6.092,3.481.653-1.305h25.57l.653,1.305Zm24.968.87v23.061H847.76V858.3ZM846.672,882.23h25.237v1.305H846.672Zm28.5,3.481H843.408v-1.305h31.763Z" transform="translate(-842.538 -853.077)" fill="#a5a6ab"/>
    <path id="Path_5414" data-name="Path 5414" d="M1000.474,902.211h3.263a.436.436,0,0,0,.435-.435v-3.263a.436.436,0,0,0-.435-.435h-3.263a.436.436,0,0,0-.435.435v3.263A.436.436,0,0,0,1000.474,902.211Zm.435-3.263h2.393v2.393h-2.393Z" transform="translate(-977.195 -891.55)" fill="#a5a6ab"/>
    <path id="Path_5415" data-name="Path 5415" d="M962.974,902.211h3.263a.436.436,0,0,0,.435-.435v-3.263a.436.436,0,0,0-.435-.435h-3.263a.436.436,0,0,0-.435.435v3.263A.436.436,0,0,0,962.974,902.211Zm.435-3.263H965.8v2.393h-2.393Z" transform="translate(-945.134 -891.55)" fill="#a5a6ab"/>
    <path id="Path_5416" data-name="Path 5416" d="M1000.474,939.711h3.263a.436.436,0,0,0,.435-.435v-3.263a.436.436,0,0,0-.435-.435h-3.263a.436.436,0,0,0-.435.435v3.263A.436.436,0,0,0,1000.474,939.711Zm.435-3.263h2.393v2.393h-2.393Z" transform="translate(-977.195 -923.611)" fill="#a5a6ab"/>
    <path id="Path_5417" data-name="Path 5417" d="M962.974,939.711h3.263a.436.436,0,0,0,.435-.435v-3.263a.436.436,0,0,0-.435-.435h-3.263a.436.436,0,0,0-.435.435v3.263A.436.436,0,0,0,962.974,939.711Zm.435-3.263H965.8v2.393h-2.393Z" transform="translate(-945.134 -923.611)" fill="#a5a6ab"/>
    <path id="Path_5418" data-name="Path 5418" d="M1000.474,977.211h3.263a.436.436,0,0,0,.435-.435v-3.263a.436.436,0,0,0-.435-.435h-3.263a.436.436,0,0,0-.435.435v3.263A.436.436,0,0,0,1000.474,977.211Zm.435-3.263h2.393v2.393h-2.393Z" transform="translate(-977.195 -955.672)" fill="#a5a6ab"/>
    <path id="Path_5419" data-name="Path 5419" d="M962.974,977.211h3.263a.436.436,0,0,0,.435-.435v-3.263a.436.436,0,0,0-.435-.435h-3.263a.436.436,0,0,0-.435.435v3.263A.436.436,0,0,0,962.974,977.211Zm.435-3.263H965.8v2.393h-2.393Z" transform="translate(-945.134 -955.672)" fill="#a5a6ab"/>
    <path id="Path_5420" data-name="Path 5420" d="M1000.474,1014.711h3.263a.436.436,0,0,0,.435-.435v-3.263a.436.436,0,0,0-.435-.435h-3.263a.436.436,0,0,0-.435.435v3.263A.436.436,0,0,0,1000.474,1014.711Zm.435-3.263h2.393v2.393h-2.393Z" transform="translate(-977.195 -987.734)" fill="#a5a6ab"/>
    <path id="Path_5421" data-name="Path 5421" d="M962.974,1014.711h3.263a.436.436,0,0,0,.435-.435v-3.263a.436.436,0,0,0-.435-.435h-3.263a.436.436,0,0,0-.435.435v3.263A.436.436,0,0,0,962.974,1014.711Zm.435-3.263H965.8v2.393h-2.393Z" transform="translate(-945.134 -987.734)" fill="#a5a6ab"/>
  </g>
</svg>
