<svg xmlns="http://www.w3.org/2000/svg" width="37.174" height="27.036" viewBox="0 0 37.174 27.036">
  <g id="Group_5980" data-name="Group 5980" transform="translate(-468 -467.828)">
    <path id="Path_5509" data-name="Path 5509" d="M475.885,490.358H489.4a5.644,5.644,0,0,0,5.633-5.633v-16.9H470.253v16.9A5.644,5.644,0,0,0,475.885,490.358Zm-3.38-20.277h20.277v14.644a3.383,3.383,0,0,1-3.38,3.379H475.885a3.383,3.383,0,0,1-3.38-3.379Zm32.668,7.885a7.892,7.892,0,0,1-7.886,7.886V483.6a5.632,5.632,0,1,0,0-11.265v-2.253a7.893,7.893,0,0,1,7.886,7.886ZM468,492.611h29.289v2.253H468Z" fill="#bababa"/>
  </g>
</svg>
