<svg xmlns="http://www.w3.org/2000/svg" width="35.642" height="35.841" viewBox="0 0 35.642 35.841">
  <g id="Group_5271" data-name="Group 5271" transform="translate(-657.154 -802.692)">
    <g id="Group_5177" data-name="Group 5177" transform="translate(657.154 802.692)">
      <path id="Path_5425" data-name="Path 5425" d="M743.694,857.367a2.407,2.407,0,1,0,.573-4.745,2.407,2.407,0,0,0-.573,4.745Zm-.371-2.569a.969.969,0,0,1,.944-.741,1.024,1.024,0,0,1,.234.028.973.973,0,1,1-1.177.713Z" transform="translate(-731.742 -846.657)" fill="#ef804a"/>
      <path id="Path_5426" data-name="Path 5426" d="M692.692,824.659l-3.742-6.184,1.725-7.018a.716.716,0,0,0-.525-.868l-7.02-1.725-3.528-5.827a.717.717,0,0,0-.984-.242l-5.828,3.528-6.615-1.625a.723.723,0,0,0-.543.083.715.715,0,0,0-.325.442l-1.624,6.616-6.184,3.744a.715.715,0,0,0-.325.442.724.724,0,0,0,.083.543L661,822.75l-1.725,7.02a.72.72,0,0,0,.083.542.71.71,0,0,0,.442.325l7.02,1.725,3.528,5.827a.709.709,0,0,0,.442.325.8.8,0,0,0,.172.02.715.715,0,0,0,.371-.1l5.827-3.529,6.615,1.625a.657.657,0,0,0,.171.021.718.718,0,0,0,.7-.546l1.625-6.614,6.182-3.745a.714.714,0,0,0,.242-.983Zm-13.944-20.265,2.414,3.987-6.4-1.572Zm-12.219,1.868,6.208,1.526h0l9.747,2.4.02.006,6.608,1.624-1.625,6.609v0l-1.11,4.515-3.1-4.04c-.014-.018-.035-.027-.049-.044a.8.8,0,0,0-.109-.1.785.785,0,0,0-.113-.067.648.648,0,0,0-.132-.043.609.609,0,0,0-.132-.02.622.622,0,0,0-.134.008.658.658,0,0,0-.139.035c-.021.008-.045.005-.066.015l-5.229,2.472-2.771-6.285c-.015-.034-.042-.055-.059-.085a.624.624,0,0,0-.083-.116.758.758,0,0,0-.1-.084.807.807,0,0,0-.381-.137.76.76,0,0,0-.137.015.655.655,0,0,0-.106.011l-9.784,3.115L665,812.472a.006.006,0,0,1,0,0Zm-3.186,12.965,10-3.183,4.691,10.637-15.583-3.831Zm16.451,7.885-2.045-4.639,4.74-2.243,3.45,4.491-.9,3.679Zm-20.938-10.674,4.343-2.629-1.714,6.972ZM671.2,836.832l-2.415-3.987,6.4,1.572Zm12.218-1.869-22.582-5.548,1.271-5.173,22.582,5.55Zm3.331-7.545,1.713-6.973,2.629,4.343Z" transform="translate(-657.154 -802.692)" fill="#ef804a"/>
    </g>
  </g>
</svg>
