<svg xmlns="http://www.w3.org/2000/svg" width="41.573" height="33.212" viewBox="0 0 41.573 33.212">
  <g id="Group_5248" data-name="Group 5248" transform="translate(-898.847 -1165.044)">
    <g id="Group_5232" data-name="Group 5232" transform="translate(899.267 1174.886)">
      <g id="Group_2" data-name="Group 2" transform="translate(0 0.51)" opacity="0.51">
        <rect id="Rectangle_1" data-name="Rectangle 1" width="35.597" height="16.62" fill="#e17400"/>
        <g id="Group_1" data-name="Group 1">
          <rect id="Rectangle_2" data-name="Rectangle 2" width="35.597" height="16.62" fill="#e17400"/>
        </g>
      </g>
      <rect id="Rectangle_3" data-name="Rectangle 3" width="35.597" height="16.62" transform="translate(1.075 0)" fill="#fff"/>
      <g id="Group_3" data-name="Group 3" transform="translate(1.075 0)">
        <rect id="Rectangle_4" data-name="Rectangle 4" width="35.597" height="16.62" fill="none" stroke="#e17400" stroke-width="1.667"/>
      </g>
      <path id="Path_5475" data-name="Path 5475" d="M585.994,429.845a1.274,1.274,0,0,0-.9-1.232,3.226,3.226,0,0,1-2.19-2.183,1.286,1.286,0,0,0-1.24-.906h-6.054a.432.432,0,0,0-.3.743,8.192,8.192,0,0,1,0,11,.433.433,0,0,0,.305.743h6.049a1.29,1.29,0,0,0,1.244-.907,3.222,3.222,0,0,1,2.186-2.181,1.281,1.281,0,0,0,.9-1.237c0-1.091,0-2.747,0-3.837Z" transform="translate(-551.291 -423.426)" fill="#f6d5b2" stroke="#e17400" stroke-width="1"/>
      <path id="Path_5476" data-name="Path 5476" d="M518.089,430.124a1.273,1.273,0,0,1,.9-1.232,3.226,3.226,0,0,0,2.19-2.183,1.286,1.286,0,0,1,1.24-.906h6.054a.433.433,0,0,1,.3.743,8.191,8.191,0,0,0,0,11,.433.433,0,0,1-.3.743h-6.049a1.291,1.291,0,0,1-1.244-.907,3.222,3.222,0,0,0-2.186-2.181,1.281,1.281,0,0,1-.9-1.237c0-1.091,0-2.747,0-3.837Z" transform="translate(-514.966 -423.604)" fill="#f6d5b2" stroke="#e17400" stroke-width="1"/>
      <path id="Path_5477" data-name="Path 5477" d="M558.88,433.587c-1.257-.335-1.611-.541-1.611-.9,0-.442.5-.55,1-.55a2.314,2.314,0,0,1,1.424.442,1.032,1.032,0,0,0,.579.2.744.744,0,0,0,.716-.766,1.087,1.087,0,0,0-.433-.737,2.767,2.767,0,0,0-1.482-.579v-.344a.766.766,0,1,0-1.531,0v.384a2.039,2.039,0,0,0-1.847,1.993c0,1.374,1.042,1.787,2.081,2.063,1.258.335,1.611.541,1.611.9,0,.442-.5.55-1,.55a2.314,2.314,0,0,1-1.423-.443,1.035,1.035,0,0,0-.58-.2.744.744,0,0,0-.717.766,1.086,1.086,0,0,0,.433.737,2.766,2.766,0,0,0,1.482.579v.344a.766.766,0,1,0,1.531,0v-.384a2.039,2.039,0,0,0,1.847-1.993C560.962,434.275,559.92,433.863,558.88,433.587Z" transform="translate(-538.878 -426.007)" fill="#e17400"/>
    </g>
    <g id="Group_5233" data-name="Group 5233" transform="matrix(0.891, 0.454, -0.454, 0.891, 906.624, 1165.677)">
      <g id="Group_2-2" data-name="Group 2" transform="translate(0 0.51)" opacity="0.51">
        <rect id="Rectangle_1-2" data-name="Rectangle 1" width="35.597" height="16.62" fill="#e17400"/>
        <g id="Group_1-2" data-name="Group 1">
          <rect id="Rectangle_2-2" data-name="Rectangle 2" width="35.597" height="16.62" fill="#e17400"/>
        </g>
      </g>
      <rect id="Rectangle_3-2" data-name="Rectangle 3" width="35.597" height="16.62" transform="translate(1.075 0)" fill="#fff"/>
      <g id="Group_3-2" data-name="Group 3" transform="translate(1.075 0)">
        <rect id="Rectangle_4-2" data-name="Rectangle 4" width="35.597" height="16.62" fill="none" stroke="#e17400" stroke-width="1.667"/>
      </g>
      <path id="Path_5475-2" data-name="Path 5475" d="M10.821,4.321a1.274,1.274,0,0,0-.9-1.232A3.226,3.226,0,0,1,7.73.906,1.286,1.286,0,0,0,6.49,0H.436a.432.432,0,0,0-.3.743,7.7,7.7,0,0,1,2.12,5.5,7.69,7.69,0,0,1-2.12,5.5.433.433,0,0,0,.305.743H6.486a1.29,1.29,0,0,0,1.244-.907A3.222,3.222,0,0,1,9.916,9.4a1.281,1.281,0,0,0,.9-1.237c0-1.091,0-2.747,0-3.837Z" transform="translate(23.882 2.098)" fill="#f6d5b2" stroke="#e17400" stroke-width="1"/>
      <path id="Path_5476-2" data-name="Path 5476" d="M0,4.321A1.273,1.273,0,0,1,.9,3.089,3.227,3.227,0,0,0,3.092.906,1.286,1.286,0,0,1,4.333,0h6.054a.433.433,0,0,1,.3.743,7.694,7.694,0,0,0-2.12,5.5,7.691,7.691,0,0,0,2.12,5.5.433.433,0,0,1-.3.743H4.336a1.291,1.291,0,0,1-1.244-.907A3.222,3.222,0,0,0,.906,9.4,1.281,1.281,0,0,1,0,8.158C0,7.067,0,5.411,0,4.321Z" transform="translate(3.122 2.199)" fill="#f6d5b2" stroke="#e17400" stroke-width="1"/>
      <path id="Path_5477-2" data-name="Path 5477" d="M3.214,4.007C1.957,3.672,1.6,3.466,1.6,3.1c0-.442.5-.55,1-.55a2.314,2.314,0,0,1,1.424.442,1.032,1.032,0,0,0,.579.2.744.744,0,0,0,.716-.766,1.087,1.087,0,0,0-.433-.737A2.767,2.767,0,0,0,3.409,1.11V.766A.738.738,0,0,0,2.643,0a.737.737,0,0,0-.766.766V1.15A2.039,2.039,0,0,0,.031,3.142c0,1.374,1.042,1.787,2.081,2.063,1.258.335,1.611.541,1.611.9,0,.442-.5.55-1,.55A2.313,2.313,0,0,1,1.3,6.217a1.036,1.036,0,0,0-.58-.2A.744.744,0,0,0,0,6.786a1.085,1.085,0,0,0,.433.737A2.766,2.766,0,0,0,1.915,8.1v.344a.738.738,0,0,0,.766.766.737.737,0,0,0,.766-.766V8.062A2.039,2.039,0,0,0,5.294,6.069C5.3,4.695,4.254,4.283,3.214,4.007Z" transform="translate(16.788 3.573)" fill="#e17400"/>
    </g>
  </g>
</svg>
