<svg xmlns="http://www.w3.org/2000/svg" width="51.179" height="40.121" viewBox="0 0 51.179 40.121">
  <g id="Group_6138" data-name="Group 6138" transform="translate(0.691 1)">
    <rect id="Rectangle_4373" data-name="Rectangle 4373" width="46.203" height="35.892" transform="translate(4.284 3.229)" fill="#d37d0f" opacity="0.51"/>
    <rect id="Rectangle_4374" data-name="Rectangle 4374" width="46.178" height="35.704" transform="translate(0.309 0)" fill="#fff"/>
    <rect id="Rectangle_4375" data-name="Rectangle 4375" width="46.178" height="35.704" transform="translate(0 0.423)" fill="#fff" opacity="0.6"/>
    <rect id="Rectangle_4376" data-name="Rectangle 4376" width="46.178" height="35.704" transform="translate(0.309 0)" fill="none" stroke="#d37d0f" stroke-width="2"/>
    <g id="Group_5195" data-name="Group 5195" transform="translate(12.22 5.958)">
      <g id="Group_5194" data-name="Group 5194">
        <path id="Path_5431" data-name="Path 5431" d="M133.778,243.886h-3.046v-.975a.642.642,0,1,0-1.285,0h0v3.355a1.251,1.251,0,0,0-.642,1.095,1.284,1.284,0,1,0,1.927-1.095v-1.095h3.046a.474.474,0,0,1,.473.473v3.883H114.194v-3.883a.474.474,0,0,1,.474-.473h1.951v-1.285h-1.948a1.756,1.756,0,0,0-1.761,1.751v17.428a1.756,1.756,0,0,0,1.751,1.761h19.117a1.753,1.753,0,0,0,1.737-1.761V245.648a1.752,1.752,0,0,0-1.737-1.762Zm.453,19.179a.474.474,0,0,1-.473.473H114.671a.474.474,0,0,1-.474-.473V250.786h20.059v12.279Z" transform="translate(-112.91 -242.268)" fill="#d37d0f"/>
        <path id="Path_5432" data-name="Path 5432" d="M118.8,260.533h2.926a.428.428,0,0,0,.428-.426v-1.881a.427.427,0,0,0-.426-.428H118.8a.428.428,0,0,0-.428.426V260.1a.428.428,0,0,0,.426.428Z" transform="translate(-114.472 -246.708)" fill="#d37d0f"/>
        <path id="Path_5433" data-name="Path 5433" d="M126.5,260.533h2.926a.427.427,0,0,0,.429-.426v-1.882a.427.427,0,0,0-.426-.428H126.5a.427.427,0,0,0-.428.426V260.1a.428.428,0,0,0,.426.428h0Z" transform="translate(-116.674 -246.708)" fill="#d37d0f"/>
        <path id="Path_5434" data-name="Path 5434" d="M134.23,260.533h2.926a.428.428,0,0,0,.428-.426v-1.881a.427.427,0,0,0-.426-.428H134.23a.428.428,0,0,0-.428.426V260.1a.428.428,0,0,0,.426.428Z" transform="translate(-118.883 -246.708)" fill="#d37d0f"/>
        <path id="Path_5435" data-name="Path 5435" d="M118.8,267.363h2.926a.427.427,0,0,0,.428-.426v-1.882a.427.427,0,0,0-.426-.428H118.8a.427.427,0,0,0-.428.426h0v1.879a.427.427,0,0,0,.426.428Z" transform="translate(-114.472 -248.661)" fill="#d37d0f"/>
        <path id="Path_5436" data-name="Path 5436" d="M126.5,267.363h2.926a.426.426,0,0,0,.429-.425v-1.882a.427.427,0,0,0-.426-.428H126.5a.427.427,0,0,0-.428.426h0v1.879a.427.427,0,0,0,.426.428Z" transform="translate(-116.673 -248.661)" fill="#d37d0f"/>
        <path id="Path_5437" data-name="Path 5437" d="M134.23,267.363h2.926a.427.427,0,0,0,.428-.426v-1.882a.427.427,0,0,0-.426-.428H134.23a.427.427,0,0,0-.428.426h0v1.879a.427.427,0,0,0,.426.428Z" transform="translate(-118.883 -248.661)" fill="#d37d0f"/>
        <path id="Path_5438" data-name="Path 5438" d="M120,248.621a1.274,1.274,0,0,0,.643-2.379v-1.1h3.545v-1.26h-3.545v-.975a.642.642,0,1,0-1.285,0h0v3.355a1.251,1.251,0,0,0-.642,1.095A1.273,1.273,0,0,0,120,248.621Z" transform="translate(-114.569 -242.268)" fill="#d37d0f"/>
        <path id="Path_5439" data-name="Path 5439" d="M128.223,248.621a1.274,1.274,0,0,0,.642-2.379v-1.1h3.523v-1.26h-3.523v-.975a.642.642,0,1,0-1.284,0h0v3.355a1.251,1.251,0,0,0-.642,1.095A1.273,1.273,0,0,0,128.223,248.621Z" transform="translate(-116.921 -242.268)" fill="#d37d0f"/>
      </g>
    </g>
  </g>
</svg>
