<svg xmlns="http://www.w3.org/2000/svg" width="24.023" height="17.472" viewBox="0 0 24.023 17.472">
  <path id="Path_5572" data-name="Path 5572" d="M473.1,482.388h8.736a3.647,3.647,0,0,0,3.64-3.64v-10.92H469.456v10.92A3.647,3.647,0,0,0,473.1,482.388Zm-2.184-13.1h13.1v9.464a2.186,2.186,0,0,1-2.184,2.184H473.1a2.186,2.186,0,0,1-2.184-2.184Zm21.112,5.1a5.1,5.1,0,0,1-5.1,5.1V478.02a3.64,3.64,0,1,0,0-7.28v-1.456a5.1,5.1,0,0,1,5.1,5.1ZM468,483.844h18.928V485.3H468Z" transform="translate(-468 -467.828)" fill="#fff"/>
</svg>
