<svg xmlns="http://www.w3.org/2000/svg" width="47.297" height="33.981" viewBox="0 0 47.297 33.981">
  <path id="Path_5568" data-name="Path 5568" d="M474.791,474.731s-4.6-5.858-4.914-8.443-.442-5.229.063-5.544,2.079-1.574,2.079-1.574l2.269.188,1.449-2.267s-1.7-1.451-1.765-2.079-2.2-1.765-2.2-1.765l-.44-2.52-1.134.44a7.618,7.618,0,0,1-3.842,3.59,6.517,6.517,0,0,1-3.4,2.079,73.418,73.418,0,0,0-9.2-1.951,35.966,35.966,0,0,0-8.886.249c-.015,0-.028,0-.039,0-5.649,1.214-7.419-3.246-8.749-7.918-.115-.406-.222-.78-.323-1.1-1.009-3.189-4.317-3.5-5.926-3.21a1.008,1.008,0,0,0,.349,1.986c.3-.052,2.94-.427,3.651,1.829.1.3.2.66.307,1.044.856,3,2.482,8.7,7.646,9.494a10.455,10.455,0,0,0-2.332,3.664c-1.007,2.9-2.077,5.8-3.21,7.122a16.115,16.115,0,0,0-2.458,5.353,27.478,27.478,0,0,0,.379,3.4h3.023l-.251-1.7-.693-.44s.251-2.9,1.51-3.779,6.048-4.533,7.243-4.533.44,5.667.756,5.983,3.15,4.472,3.15,4.472h3.212l-.189-1.511-.818-.5h-1.323s-1.512-2.456-1.262-3.086,2.332-4.093,2.774-5.29l5.921.881-.063,8.568.787.946h2.424l.188-1.26-1.07-.85s1.384-6.268,2.833-6.772,6.613,2.52,8.25,5.037a15.08,15.08,0,0,0,3.527,3.843h2.2v-1.639Z" transform="translate(-429 -442.828)" fill="#bababa"/>
</svg>
