<svg id="Vector_Smart_Object" data-name="Vector Smart Object" xmlns="http://www.w3.org/2000/svg" width="15.964" height="13.444" viewBox="0 0 15.964 13.444">
  <g id="Vector_Smart_Object-2" data-name="Vector Smart Object" transform="translate(0 0)">
    <path id="Twitter" d="M117,56.985a5.9,5.9,0,0,1-2.086.813,3.274,3.274,0,0,0-2.384-1.07,3.336,3.336,0,0,0-3.278,3.382,4.737,4.737,0,0,0,.085.77,9.2,9.2,0,0,1-6.726-3.511,3.3,3.3,0,0,0-.426,1.712,3.573,3.573,0,0,0,1.448,2.826,3.011,3.011,0,0,1-1.49-.428v.043a3.314,3.314,0,0,0,2.639,3.3,2.727,2.727,0,0,1-.851.129,2.6,2.6,0,0,1-.6-.043A3.342,3.342,0,0,0,106.4,67.26a6.4,6.4,0,0,1-4.044,1.456,4.6,4.6,0,0,1-.766-.043,9.13,9.13,0,0,0,5.023,1.5c6,0,9.323-5.138,9.323-9.59v-.428a6.356,6.356,0,0,0,1.618-1.756,5.814,5.814,0,0,1-1.873.514A4.727,4.727,0,0,0,117,56.985Z" transform="translate(-101.59 -56.728)" fill="#fff"/>
  </g>
  <path id="Color_Overlay" data-name="Color Overlay" d="M0,11.945a4.572,4.572,0,0,0,.766.043,6.405,6.405,0,0,0,4.045-1.456A3.343,3.343,0,0,1,1.745,8.177a2.586,2.586,0,0,0,.6.043,2.733,2.733,0,0,0,.851-.129A3.314,3.314,0,0,1,.554,4.8V4.752a3.01,3.01,0,0,0,1.49.429A3.574,3.574,0,0,1,.6,2.355,3.3,3.3,0,0,1,1.022.642,9.2,9.2,0,0,0,7.748,4.153a4.777,4.777,0,0,1-.085-.771A3.336,3.336,0,0,1,10.941,0a3.275,3.275,0,0,1,2.384,1.07A5.894,5.894,0,0,0,15.41.257a4.725,4.725,0,0,1-1.32,1.927,5.814,5.814,0,0,0,1.873-.514,6.36,6.36,0,0,1-1.617,1.756v.428c0,4.452-3.32,9.59-9.323,9.59A9.129,9.129,0,0,1,0,11.945Z" transform="translate(0)" fill="#fff"/>
</svg>
