<svg id="Vector_Smart_Object" data-name="Vector Smart Object" xmlns="http://www.w3.org/2000/svg" width="14.704" height="14.704" viewBox="0 0 14.704 14.704">
  <g id="Vector_Smart_Object-2" data-name="Vector Smart Object">
    <g id="Group_8" data-name="Group 8">
      <path id="Path_91" data-name="Path 91" d="M300.672,56.3h-5.943a4.385,4.385,0,0,0-4.38,4.38v5.943a4.385,4.385,0,0,0,4.38,4.38h5.943a4.385,4.385,0,0,0,4.38-4.38V60.683A4.385,4.385,0,0,0,300.672,56.3Zm2.9,10.324a2.9,2.9,0,0,1-2.9,2.9h-5.943a2.9,2.9,0,0,1-2.9-2.9V60.683a2.9,2.9,0,0,1,2.9-2.9h5.943a2.9,2.9,0,0,1,2.9,2.9v5.943Z" transform="translate(-290.349 -56.303)" fill="#fff"/>
      <path id="Path_92" data-name="Path 92" d="M298.737,60.889a3.8,3.8,0,1,0,3.8,3.8A3.807,3.807,0,0,0,298.737,60.889Zm0,6.127a2.324,2.324,0,1,1,2.324-2.324A2.324,2.324,0,0,1,298.737,67.016Z" transform="translate(-291.386 -57.34)" fill="#fff"/>
      <ellipse id="Ellipse_1" data-name="Ellipse 1" cx="0.911" cy="0.911" rx="0.911" ry="0.911" transform="translate(10.251 2.666)" fill="#fff"/>
    </g>
  </g>
  <path id="Color_Overlay" data-name="Color Overlay" d="M4.38,14.7A4.385,4.385,0,0,1,0,10.324V4.38A4.385,4.385,0,0,1,4.38,0h5.943A4.385,4.385,0,0,1,14.7,4.38v5.943a4.385,4.385,0,0,1-4.38,4.38ZM1.479,4.38v5.943a2.9,2.9,0,0,0,2.9,2.9h5.943a2.9,2.9,0,0,0,2.9-2.9V4.38a2.9,2.9,0,0,0-2.9-2.9H4.38A2.9,2.9,0,0,0,1.479,4.38ZM3.549,7.352a3.8,3.8,0,1,1,3.8,3.8A3.807,3.807,0,0,1,3.549,7.352Zm1.479,0A2.324,2.324,0,1,0,7.351,5.028,2.324,2.324,0,0,0,5.028,7.352Zm5.223-3.775a.911.911,0,1,1,.911.912A.911.911,0,0,1,10.251,3.577Z" transform="translate(0 0)" fill="#fff"/>
</svg>
